<?xml version="1.0" encoding="UTF-8"?>
<svg xmlns="http://www.w3.org/2000/svg" width="1040" height="760" viewBox="0 0 1040 760">
<rect width="100%" height="100%" fill="#f8fafc"/>
<style>
text{font-family:'Segoe UI','Yu Gothic UI',sans-serif}
.mono{font-family:Consolas,'Courier New',monospace}
</style>
<text x="28" y="38" font-size="24" font-weight="700" fill="#111827">3D Double Pendulum</text>
<text x="28" y="62" font-size="12" fill="#475569">Free-direction constrained motion with mouse-rotatable camera in the app</text>
<line x1="520.00" y1="380.00" x2="581.03" y2="329.80" stroke="#ef4444" stroke-width="3"/>
<line x1="520.00" y1="380.00" x2="567.88" y2="428.58" stroke="#10b981" stroke-width="3"/>
<line x1="520.00" y1="380.00" x2="520.00" y2="354.40" stroke="#3b82f6" stroke-width="3"/>
<polyline points="572.63,401.03 572.06,401.96 571.47,402.89 570.86,403.82 570.24,404.75 569.60,405.69 568.95,406.62 568.27,407.54 567.58,408.47 566.88,409.40 566.15,410.32 565.41,411.24 564.65,412.16 563.88,413.07 563.09,413.98 562.28,414.89 561.46,415.79 560.63,416.68 559.77,417.57 558.90,418.44 558.02,419.31 557.13,420.17 556.22,421.02 555.29,421.86 554.36,422.69 553.41,423.51 552.45,424.31 551.47,425.10 550.49,425.87 549.50,426.63 548.49,427.37 547.48,428.09 546.46,428.79 545.43,429.48 544.39,430.15 543.35,430.79 542.30,431.42 541.24,432.02 540.18,432.60 539.11,433.15 538.04,433.68 536.97,434.19 535.89,434.67 534.82,435.12 533.74,435.55 532.65,435.95 531.57,436.31 530.49,436.65 529.41,436.96 528.33,437.24 527.25,437.49 526.17,437.70 525.10,437.88 524.03,438.03 522.96,438.14 521.90,438.21 520.84,438.25 519.79,438.25 518.74,438.22 517.70,438.14 516.67,438.02 515.65,437.86 514.64,437.65 513.64,437.40 512.66,437.10 511.68,436.75 510.73,436.36 509.79,435.91 508.87,435.40 507.97,434.84 507.11,434.23 506.26,433.55 505.46,432.82 504.68,432.03 503.95,431.19 503.26,430.29 502.62,429.34 502.04,428.36 501.50,427.34 501.02,426.31 500.59,425.27 500.22,424.24 499.89,423.22 499.61,422.24 499.36,421.29 499.15,420.40 498.96,419.56 498.79,418.78 498.64,418.05 498.50,417.39 498.37,416.80 498.25,416.26 498.13,415.79 498.00,415.38 497.88,415.03 497.75,414.73 497.62,414.49 497.47,414.31 497.33,414.18 497.17,414.10 497.00,414.07 496.83,414.09 496.64,414.15 496.44,414.26 496.23,414.41 496.01,414.60 495.78,414.83 495.54,415.10 495.28,415.40 495.02,415.73 494.74,416.10 494.45,416.49 494.15,416.92 493.83,417.37 493.51,417.84 493.18,418.34 492.84,418.86 492.48,419.39 492.12,419.95 491.75,420.52 491.37,421.10 490.98,421.70 490.59,422.31 490.19,422.92 489.78,423.55 489.37,424.18 488.95,424.81 488.53,425.45 488.11,426.08 487.68,426.72 487.26,427.35 486.83,427.99 486.40,428.61 485.97,429.24 485.54,429.85 485.11,430.46 484.69,431.06 484.27,431.64 483.85,432.22 483.43,432.79 483.02,433.34 482.62,433.88 482.22,434.41 481.83,434.92 481.44,435.42 481.06,435.90 480.69,436.36 480.33,436.81 479.97,437.25 479.63,437.67 479.29,438.07 478.96,438.45 478.64,438.82 478.33,439.17 478.03,439.50 477.74,439.82 477.46,440.12 477.19,440.40 476.93,440.67 476.68,440.92 476.44,441.16 476.20,441.37 475.98,441.58 475.77,441.76 475.57,441.94 475.38,442.10 475.19,442.24 475.02,442.37 474.85,442.48 474.70,442.58 474.55,442.67 474.41,442.75 474.28,442.81 474.15,442.86 474.04,442.90 473.93,442.93 473.83,442.95 473.73,442.95 473.64,442.95 473.56,442.93 473.49,442.91 473.42,442.87 473.35,442.83 473.29,442.78 473.23,442.72 473.18,442.65 473.14,442.57 473.09,442.49 473.05,442.39 473.02,442.30 472.98,442.19 472.95,442.08 472.92,441.96 472.90,441.84 472.87,441.71 472.85,441.57 472.82,441.43 472.80,441.29 472.78,441.14 472.76,440.99 472.73,440.83 472.71,440.67 472.69,440.51 472.66,440.34 472.64,440.17 472.61,440.00 472.58,439.82 472.55,439.64 472.51,439.46 472.48,439.28 472.44,439.10 472.40,438.91 472.35,438.72 472.30,438.53 472.25,438.35 472.19,438.16 472.13,437.97 472.07,437.78 472.00,437.58 471.92,437.39 471.85,437.20 471.76,437.01 471.67,436.82 471.58,436.64 471.48,436.45 471.38,436.26 471.27,436.08 471.15,435.89 471.03,435.71 470.91,435.53 470.78,435.35 470.64,435.17 470.49,435.00 470.35,434.82 470.19,434.65 470.03,434.48 469.86,434.32 469.69,434.15 469.51,433.99 469.33,433.84 469.14,433.68 468.95,433.53 468.75,433.38 468.54,433.23 468.33,433.09 468.12,432.95 467.90,432.81 467.68,432.68 467.45,432.55 467.21,432.42 466.97,432.29 466.73,432.17 466.49,432.05 466.24,431.94 465.99,431.82 465.73,431.71 465.47,431.61 465.21,431.50 464.95,431.40 464.69,431.30 464.42,431.20 464.15,431.10 463.88,431.01 463.62,430.91 463.35,430.82 463.08,430.73 462.81,430.64 462.55,430.55 462.28,430.47 462.02,430.38 461.77,430.29 461.51,430.21 461.26,430.12 461.02,430.03 460.78,429.94 460.55,429.85 460.32,429.75 460.10,429.66 459.90,429.56 459.70,429.46 459.51,429.36 459.34,429.25 459.18,429.14 459.04,429.02 458.91,428.90 458.80,428.77 458.71,428.63 458.65,428.49 458.61,428.35 458.59,428.19 458.61,428.03 458.66,427.86 458.74,427.68 458.87,427.49 459.03,427.30 459.25,427.09 459.51,426.88 459.83,426.65 460.21,426.42 460.66,426.17 461.18,425.92 461.78,425.67 462.46,425.40 463.24,425.13 464.11,424.86 465.07,424.59 466.15,424.32 467.32,424.05 468.61,423.79 469.99,423.54 471.48,423.30 473.07,423.07 474.75,422.85 476.50,422.64 478.33,422.44 480.23,422.25 482.17,422.08 484.17,421.91 486.20,421.74 488.26,421.58 490.35,421.43 492.46,421.27 494.57,421.11 496.70,420.95 498.83,420.79 500.97,420.62 503.10,420.44 505.22,420.26 507.34,420.07 509.45,419.87 511.55,419.66 513.64,419.44 515.72,419.21 517.78,418.97 519.82,418.71 521.85,418.45 523.86,418.17 525.85,417.88 527.82,417.57 529.78,417.26 531.71,416.93 533.62,416.59 535.50,416.24 537.37,415.87 539.21,415.49 541.02,415.11 542.81,414.71 544.58,414.29 546.31,413.87 548.02,413.44 549.70,413.00 551.36,412.55 552.98,412.09 554.57,411.62 556.13,411.14 557.66,410.66 559.15,410.17 560.61,409.68 562.04,409.18 563.44,408.67 564.79,408.16 566.12,407.65 567.40,407.14 568.66,406.62 569.87,406.10 571.05,405.58 572.19,405.06 573.29,404.55 574.36,404.03 575.38,403.51 576.38,403.00 577.33,402.49 578.25,401.98 579.13,401.47 579.97,400.97 580.78,400.47 581.55,399.98 582.29,399.49 583.00,399.01 583.67,398.53 584.31,398.05 584.91,397.58 585.48,397.12 586.03,396.66 586.54,396.20 587.02,395.75 587.48,395.30 587.91,394.86 588.31,394.42 588.68,393.99 589.03,393.55 589.35,393.13 589.65,392.70 589.92,392.28 590.18,391.86 590.41,391.44 590.61,391.02 590.80,390.61 590.96,390.19 591.11,389.77 591.23,389.36 591.33,388.94 591.41,388.52 591.47,388.09 591.51,387.66 591.52,387.23 591.51,386.79 591.48,386.35 591.43,385.90 591.35,385.43 591.25,384.96 591.12,384.48 590.95,383.98 590.76,383.47 590.54,382.94 590.28,382.40 589.99,381.83 589.66,381.24 589.29,380.63 588.88,379.99 588.42,379.33 587.93,378.63 587.39,377.91 586.81,377.16 586.20,376.39 585.56,375.59 584.90,374.78 584.22,373.95 583.52,373.12 582.83,372.28 582.14,371.45 581.46,370.62 580.79,369.80 580.13,369.00 579.50,368.22 578.88,367.45 578.29,366.70 577.72,365.98 577.17,365.27 576.64,364.59 576.14,363.93 575.66,363.29 575.20,362.68 574.77,362.08 574.36,361.51 573.97,360.97 573.60,360.44 573.26,359.93 572.93,359.45 572.63,358.99 572.35,358.55 572.08,358.13 571.84,357.73 571.61,357.35 571.41,357.00 571.22,356.66 571.06,356.34 570.91,356.04 570.78,355.76 570.67,355.51 570.58,355.27 570.50,355.05 570.44,354.84 570.40,354.66 570.38,354.50 570.38,354.35 570.39,354.23 570.42,354.12 570.46,354.03 570.53,353.96 570.61,353.91 570.70,353.87 570.82,353.86 570.95,353.86 571.09,353.88 571.25,353.92 571.43,353.98 571.63,354.06 571.84,354.15 572.06,354.27 572.30,354.40 572.56,354.55 572.83,354.72 573.11,354.91 573.41,355.11 573.72,355.34 574.05,355.58 574.38,355.84 574.73,356.12 575.09,356.42 575.46,356.73 575.84,357.07 576.23,357.42 576.62,357.79 577.02,358.18 577.43,358.58 577.84,359.00 578.25,359.44 578.66,359.89 579.07,360.36 579.47,360.85 579.88,361.35 580.27,361.86 580.66,362.39 581.04,362.93 581.41,363.48 581.76,364.04 582.10,364.61 582.43,365.20 582.73,365.79 583.02,366.39 583.29,367.00 583.54,367.62 583.76,368.24 583.97,368.87 584.15,369.51 584.31,370.15 584.44,370.80 584.55,371.45 584.64,372.11 584.70,372.77 584.74,373.44 584.74,374.11 584.73,374.79 584.68,375.46 584.61,376.15 584.51,376.83 584.39,377.52 584.23,378.21 584.05,378.91 583.84,379.61 583.59,380.31 583.32,381.01 583.01,381.72 582.67,382.42 582.30,383.13 581.89,383.84 581.45,384.55 580.96,385.26 580.44,385.97 579.88,386.68 579.28,387.39 578.64,388.09 577.95,388.79 577.21,389.48 576.42,390.17 575.58,390.85 574.68,391.52 573.72,392.17 572.71,392.82 571.63,393.44 570.48,394.05 569.26,394.63 567.97,395.19 566.59,395.71 565.13,396.20 563.58,396.65 561.94,397.04 560.20,397.37 558.35,397.64 556.40,397.82 554.34,397.92 552.18,397.91 549.92,397.79 547.56,397.54 545.13,397.15 542.64,396.62 540.13,395.94 537.63,395.13 535.17,394.20 532.78,393.18 530.49,392.08 528.31,390.94 526.26,389.77 524.34,388.60 522.55,387.43 520.88,386.29 519.33,385.19 517.90,384.12 516.59,383.10 515.37,382.12 514.25,381.20 513.23,380.34 512.29,379.53 511.43,378.78 510.66,378.09 509.95,377.46 509.32,376.89 508.76,376.38 508.26,375.93 507.82,375.55 507.44,375.24 507.11,374.99 506.84,374.80 506.62,374.69 506.46,374.65 506.33,374.67 506.26,374.77 506.23,374.95 506.23,375.20 506.28,375.53 506.37,375.93 506.48,376.42 506.63,377.00 506.81,377.65 507.02,378.39 507.24,379.22 507.49,380.14 507.75,381.15 508.03,382.24 508.31,383.42 508.59,384.69 508.87,386.04 509.15,387.48 509.42,389.00 509.67,390.60 509.91,392.27 510.12,394.01 510.30,395.81 510.45,397.67 510.57,399.59 510.65,401.55 510.68,403.55 510.67,405.58 510.61,407.63 510.49,409.70 510.33,411.77 510.11,413.84 509.83,415.91 509.50,417.96 509.11,419.98 508.66,421.97 508.16,423.92 507.59,425.82 506.97,427.67 506.29,429.46 505.55,431.18 504.76,432.82 503.91,434.38 503.01,435.86 502.06,437.25 501.05,438.55 500.00,439.75 498.90,440.84 497.75,441.83 496.56,442.72 495.33,443.49 494.06,444.15 492.76,444.70 491.42,445.13 490.05,445.45 488.65,445.66 487.22,445.75 485.77,445.73 484.30,445.59 482.81,445.35 481.31,445.00 479.80,444.54 478.28,443.98 476.76,443.32 475.24,442.57 473.72,441.72 472.21,440.79 470.71,439.77 469.23,438.67 467.77,437.50 466.33,436.27 464.93,434.97 463.56,433.62 462.24,432.23 460.96,430.79 459.74,429.32 458.58,427.83 457.48,426.33 456.46,424.82 455.52,423.31 454.67,421.82 453.91,420.36 453.25,418.94 452.71,417.56 452.28,416.25 451.98,415.01 451.80,413.86 451.77,412.81 451.87,411.86 452.11,411.04 452.51,410.35 453.05,409.80 453.73,409.41 454.57,409.16 455.54,409.09 456.66,409.17 457.90,409.43 459.27,409.85 460.75,410.44 462.34,411.20 464.01,412.10 465.76,413.16 467.57,414.35 469.43,415.67 471.32,417.10 473.22,418.63 475.13,420.25 477.03,421.95 478.89,423.69 480.72,425.48 482.49,427.30 484.19,429.12 485.81,430.95 487.35,432.75 488.78,434.53 490.11,436.26 491.32,437.94 492.42,439.55 493.38,441.10 494.22,442.56 494.93,443.93 495.50,445.20 495.93,446.38 496.22,447.45 496.38,448.41 496.39,449.25 496.28,449.98 496.03,450.60 495.65,451.10 495.15,451.49 494.52,451.76 493.79,451.91 492.95,451.96 492.01,451.90 490.99,451.75 489.89,451.49 488.72,451.15 487.51,450.73 486.26,450.23 484.98,449.67 483.69,449.05 482.41,448.39 481.14,447.69 479.91,446.96 478.72,446.21 477.59,445.46 476.54,444.70 475.56,443.95 474.69,443.21 473.92,442.49 473.27,441.80 472.76,441.14 472.38,440.52 472.16,439.94 472.11,439.40 472.24,438.92 472.55,438.49 473.07,438.12 473.80,437.82 474.77,437.60 475.97,437.44 477.43,437.37 479.15,437.39 481.13,437.50 483.40,437.72 485.93,438.04 488.73,438.47 491.78,439.01 495.05,439.67 498.52,440.45 502.12,441.34 505.80,442.32 509.48,443.40 513.10,444.54 516.57,445.73 519.82,446.94 522.79,448.16 525.41,449.34 527.66,450.48 529.51,451.56 530.96,452.56 532.02,453.48 532.69,454.30 533.01,455.04 532.98,455.68 532.65,456.24 532.04,456.72 531.17,457.12 530.08,457.44 528.77,457.70 527.29,457.90 525.64,458.05 523.86,458.14 521.97,458.19 519.98,458.19 517.92,458.14 515.82,458.05 513.71,457.92 511.61,457.75 509.58,457.53 507.63,457.27 505.83,456.96 504.23,456.60 502.86,456.19 501.78,455.74 501.04,455.24 500.69,454.71 500.76,454.16 501.27,453.58 502.23,453.00 503.65,452.43 505.51,451.89 507.77,451.39 510.40,450.94 513.34,450.57 516.54,450.27 519.91,450.07 523.38,449.97 526.86,449.97 530.27,450.09 533.50,450.31 536.47,450.65 539.06,451.08 541.19,451.62 542.75,452.23 543.66,452.91 543.84,453.63 543.22,454.37 541.77,455.10 539.49,455.78 536.41,456.39 532.62,456.88 528.27,457.24 523.53,457.43 518.58,457.44 513.63,457.26 508.86,456.91 504.44,456.38 500.51,455.70 497.22,454.86 494.68,453.91 493.02,452.85 492.35,451.71 492.79,450.54 494.41,449.38 497.28,448.28 501.39,447.32 506.61,446.59 512.65,446.18 518.99,446.17 524.93,446.62 529.74,447.52 532.86,448.79 534.02,450.28 533.22,451.84 530.55,453.28 526.13,454.35 520.07,454.72 512.51,453.86 503.95,450.94 496.10,444.88 492.97,435.77 497.55,426.74 507.84,420.62 520.72,418.71 533.24,422.11 541.30,431.50 539.22,443.40 531.97,446.06 532.35,437.24 554.70,408.18 570.95,412.47 571.72,427.11 553.61,444.98 526.61,451.39 535.96,452.63 563.53,445.03 558.78,447.45 551.77,450.08 541.76,453.18 527.73,455.99 508.24,455.99 484.37,448.29 464.71,431.02 461.29,414.08 475.78,415.61 480.50,435.80 460.09,422.57 452.00,389.83 470.63,369.09 476.46,364.92 466.12,353.54 473.10,325.71 488.98,320.86 517.09,328.14 550.06,321.10 535.52,303.31 534.82,303.58 556.38,314.41 588.47,343.40 590.16,371.27 571.56,365.07 584.84,370.57 581.66,423.42 554.83,442.92 520.67,447.95 486.39,438.47 460.07,420.13 446.41,405.78 452.38,407.96 463.38,428.07 452.03,410.76 454.21,370.55 489.28,348.55 511.04,353.18 500.13,346.42 513.56,324.68 538.02,325.15 563.01,338.98 584.88,367.43 592.68,407.30 568.91,401.09 573.73,381.45 572.50,414.53 518.03,437.95 466.77,406.41 453.20,360.53 449.84,350.93 443.75,375.15 451.78,364.22 465.29,354.74 483.05,347.14 503.18,340.97 521.79,334.65 531.48,328.62 534.88,332.18 549.11,348.58 573.23,372.79 589.51,402.74 574.59,431.68 530.36,414.63 534.88,403.53 496.56,435.52 451.41,408.66 444.80,364.17 475.37,330.60 485.20,326.36 486.46,359.35 517.29,360.25 549.61,367.90 582.59,376.58 594.34,359.05 598.15,377.33 581.52,422.76 503.55,430.38 453.03,386.79 447.43,351.11 442.40,372.27 453.11,360.57 477.41,349.27 505.68,342.22 528.45,343.43 542.32,355.27 562.61,376.76 587.80,393.61 591.29,403.42 566.38,411.64 526.36,436.13 462.96,409.44 445.08,357.42 462.33,356.49 478.65,360.79 550.83,355.67 586.79,394.07 595.00,396.18 565.71,415.30 493.24,421.26 479.38,410.05 442.56,368.77 464.58,360.33 483.22,353.96 529.28,349.92 574.34,381.69 591.77,393.39 581.35,403.56 495.60,429.76 479.43,395.25 445.10,362.79 463.92,361.04 481.17,339.04 533.71,355.06 570.65,396.50 592.81,407.96 598.07,381.10 550.00,413.83 443.66,378.30 457.53,332.98 444.86,358.95 463.88,364.55 506.16,360.76 552.50,358.83 569.68,360.25 559.35,393.32 579.80,407.72 588.96,416.98 578.61,391.20 557.80,383.59 526.13,400.86 462.11,401.17 442.13,372.33 469.65,350.74 490.22,326.81 488.07,353.19 525.25,367.78 568.27,380.90 594.83,382.30 596.37,386.43 577.89,432.63 548.67,440.36 490.90,418.21 471.46,353.79 465.96,361.93 443.06,365.80 466.85,350.22 518.89,346.32 548.49,344.57 535.11,368.65 563.79,390.97 589.66,406.64 593.81,402.59 585.85,413.06 539.72,443.85 485.23,418.69 449.40,362.50 471.52,322.19 455.83,335.44 480.19,346.01 526.87,359.58 572.65,376.93 570.99,376.85 572.21,417.53 572.20,437.90 550.09,437.29 532.10,406.31 527.64,419.97 472.19,402.21 447.51,355.07 474.07,323.32 495.82,318.61 482.22,345.02 516.43,360.27 560.63,378.75 582.50,381.97 580.95,402.21 569.15,440.79 532.35,434.57 489.24,369.35 494.01,375.44 448.76,362.10 458.93,337.46 494.15,330.94 508.34,336.38 500.72,369.05 535.16,387.77 570.88,406.25 597.03,389.72 588.75,403.57 528.38,435.13 485.69,401.98 471.49,350.72 460.28,344.66 449.35,350.14 483.65,346.38 539.69,349.61 546.37,356.64 557.93,405.02 573.82,431.59 574.27,419.86 576.00,420.73 517.51,425.82 460.99,370.10 462.89,326.53 467.94,324.71 458.54,360.36 492.24,362.87 537.09,371.52 584.00,380.08 593.38,405.28 526.10,445.49 555.70,436.94 516.74,411.04 464.23,366.72 444.55,360.44 449.42,362.70 465.67,333.96 505.43,337.79 540.75,370.74 556.55,407.77 565.80,401.44 588.38,411.54 575.61,427.72 521.91,429.19 498.21,429.07 499.48,384.19 461.40,346.26 459.50,338.19 466.04,362.85 483.14,347.40 535.06,356.95 570.48,394.07 569.68,435.51 578.03,423.24 578.50,424.99 524.49,420.52 472.04,400.27 457.62,375.31 481.09,332.19 468.08,321.53 479.23,340.07 529.95,370.87 574.78,412.24 569.60,429.15 578.46,429.03 566.68,434.61 508.75,396.83 467.11,355.30 458.90,331.78 462.62,335.77 457.64,332.76 471.22,332.79 501.36,349.74 532.15,372.85 562.92,402.76 574.36,434.74 544.98,433.04 459.96,363.55 492.98,310.94 475.06,317.50 474.82,320.42 497.81,331.58 518.61,343.16 538.63,359.28 554.55,378.59 558.72,399.98 538.97,417.70 545.17,422.16 560.49,429.75 570.31,439.38 555.23,434.57 502.82,399.81 455.87,377.62 456.10,375.56 479.49,322.55 485.25,311.66 504.19,331.79 514.85,371.31 509.21,373.88 545.01,374.98 563.76,405.45 568.90,436.81 538.56,452.36 520.86,454.90 547.98,431.59 516.19,390.12 479.19,339.37 460.06,330.05 454.00,341.76 481.65,316.66 509.16,332.42 532.90,373.53 537.13,416.94 540.82,418.25 577.07,420.10 577.04,432.91 547.21,420.60 484.67,407.80 495.15,415.68 484.33,359.66 470.26,320.44 478.02,334.75 489.93,361.48 504.75,346.60 536.37,367.11 556.31,400.80 560.05,431.81 559.88,442.01 583.68,424.58 568.79,426.02 516.28,402.97 459.08,392.48 449.75,360.87 478.77,313.50 492.11,324.58 500.60,363.62 509.95,368.35 550.80,380.40 571.98,419.32 546.98,453.06 545.41,452.76 545.73,410.22 496.13,360.91 455.71,340.19 452.89,342.85 480.70,315.27 503.04,336.04 521.90,380.74 524.20,398.60 558.57,388.42 576.11,418.38 560.71,445.15 526.91,453.50 534.74,433.71 496.34,364.67 464.24,326.91 466.17,342.63 469.41,330.26 505.19,337.57 529.81,372.35 543.82,404.47 556.91,415.12 583.82,397.91 586.01,421.99 549.15,435.21 474.89,392.59 453.22,339.70 511.20,329.28 478.05,320.59 501.06,334.99 544.75,367.92 566.86,392.53 578.25,416.93 572.53,431.91 562.41,430.50 560.31,446.53 537.19,443.29 493.70,395.73 447.22,352.67 451.90,348.31 463.34,334.26 507.36,310.32 531.63,326.38 555.23,354.19 561.05,399.18 540.94,411.45 556.10,425.21 564.19,444.58 502.37,433.85 449.86,396.71 447.63,385.24 480.91,327.82 491.59,307.21 513.46,310.35 522.99,340.40 503.77,350.88 527.04,355.84 559.62,386.89 558.36,436.40 516.22,458.16 500.04,454.68 541.89,437.07 516.27,406.28 487.98,361.47 459.30,337.26 455.29,336.79 474.34,316.45 510.64,313.88 532.88,353.30 535.94,408.20 531.06,418.71 571.12,416.53 571.09,437.78 552.66,443.22 493.83,430.79 483.91,427.56 490.76,388.40 479.93,324.95 486.03,316.95 497.83,353.27 503.50,346.72 544.38,363.71 562.04,395.96 565.75,431.66 547.77,450.95 562.96,442.35 558.36,442.56 516.92,414.01 462.32,376.11 448.31,363.46 467.21,332.68 482.70,313.73 502.99,337.68 513.80,369.59 528.39,366.41 562.74,392.56 571.15,429.82 542.19,454.25 541.54,454.16 533.83,422.19 485.03,370.99 454.49,340.76 454.53,337.15 492.09,308.73 514.10,326.16 531.76,371.20 520.72,389.25 550.10,399.90 569.61,435.74 538.53,445.53 484.47,420.63 516.90,419.84 488.55,363.25 463.35,327.77 469.99,326.91 488.48,327.69 517.89,313.64 532.64,338.70 542.16,380.63 557.76,429.04 546.83,451.33 510.24,412.63 526.44,446.34 493.76,409.36 471.95,336.83 479.36,313.18 495.33,314.50 496.85,321.39 497.56,319.65 521.53,341.85 546.63,382.95 560.49,426.58 524.42,458.11 486.18,434.49 483.00,358.40 532.12,397.83 504.80,352.48 485.91,313.66 507.51,316.94 543.64,335.89 544.41,339.09 520.65,369.17 531.61,408.46 547.15,442.01 563.62,444.80 557.37,448.45 508.55,449.69 488.59,412.21 473.57,351.76 497.00,307.13 526.92,306.95 505.08,303.18 505.56,322.54 528.99,357.77 552.40,401.61 560.69,420.65 528.50,421.06 526.24,444.28 523.80,457.92 536.49,443.18 533.83,419.50 514.46,395.21 470.30,364.48 476.70,323.39 500.41,304.70 539.01,309.21 535.13,318.50 522.08,353.46 533.67,399.81 551.13,440.59 559.27,440.42 516.98,457.64 496.31,440.65 499.12,373.14 519.39,347.26 478.47,336.87 490.55,307.57 528.27,321.01 553.27,341.59 534.92,349.80 535.15,396.90 543.69,439.09 550.41,451.96 528.90,457.56 496.00,441.99 488.29,379.78 505.06,328.28 489.49,321.82 494.73,307.00 523.93,324.51 551.02,354.00 539.61,363.69 537.55,412.68 542.22,450.13 538.48,454.75 500.20,455.17 480.10,413.36 514.16,329.27 521.68,302.18 482.49,316.51 512.71,321.56 551.03,357.17 559.03,405.53 529.89,449.21 526.88,430.30 527.74,453.78 517.14,448.49 470.17,390.57 458.77,355.75 480.42,333.51 523.52,302.51 538.40,314.48 546.17,360.64 509.59,383.47 532.13,384.03 540.87,421.97 525.75,453.25 493.21,450.16 475.17,429.52 514.51,435.73 512.20,389.41 504.83,331.41 489.68,310.53 494.31,306.09 528.18,304.21 537.66,332.78 527.16,381.04 506.80,412.55 525.58,415.25 528.19,449.25 505.45,454.52 485.27,425.87 503.53,412.79 524.72,355.04 523.28,307.53 503.96,309.46 512.90,311.43 537.40,345.97 530.69,397.76 507.76,430.18 528.10,435.56 526.92,457.95 494.05,429.06 484.17,388.06 530.96,369.63 524.39,313.49 498.36,309.77 507.48,329.42 542.67,344.22 533.99,374.83 513.04,416.39 512.76,448.38 541.21,454.68 524.29,455.94 499.91,413.88 512.67,328.60 534.69,304.12 508.34,302.72 512.53,319.50 533.03,357.55 537.86,387.84 512.06,402.05 518.97,439.13 543.95,454.37 536.73,432.54 481.33,409.04 501.21,358.84 527.44,306.03 531.00,314.08 503.34,352.85 522.87,335.78 533.26,377.17 526.90,431.40 508.39,450.18 514.29,455.32 544.89,450.30 532.95,411.37 505.99,338.73 462.66,339.36 486.34,313.79 520.41,309.38 528.86,345.76 526.61,398.36 516.57,402.25 549.30,414.99 551.06,440.85 543.49,454.48 507.74,441.78 484.88,437.94 503.03,417.58 505.76,344.03 498.10,305.09 496.89,327.36 498.43,332.91 542.50,338.05 551.77,369.20 556.49,404.64 537.22,441.75 517.59,443.88 528.22,455.02 528.62,445.49 486.47,375.93 461.05,331.70 465.79,324.91 521.36,301.80 536.31,314.14 548.79,345.56 534.83,385.30 522.60,379.40 540.65,401.23 546.47,440.41 513.52,457.03 465.53,419.60 466.00,411.21 515.51,370.74 519.28,325.13 529.25,303.03 522.31,312.73 492.74,321.42 511.57,328.18 538.16,361.16 533.52,417.38 503.20,446.74 493.53,450.15 537.74,456.21 530.15,446.03 512.15,406.99 477.04,365.07 472.56,355.09 503.16,325.42 521.08,301.91 521.31,329.76 509.62,376.96 514.83,376.86 544.36,407.46 546.81,437.56 538.35,456.07 504.31,450.48 515.00,454.97 523.08,424.65 509.94,353.04 487.80,311.40 479.14,315.94 502.65,305.98 523.55,325.61 527.68,365.11 522.02,404.16 523.99,415.51 556.34,424.25 552.92,449.36 529.85,446.98 464.22,412.69 462.73,369.38 506.67,316.80 510.73,302.32 506.16,315.59 509.12,325.19 537.07,343.12 544.19,391.53 522.31,440.56 511.33,450.96 547.87,453.07 526.46,430.47 471.03,363.16 473.27,340.68 518.02,309.13 524.20,305.67 517.14,343.29 511.45,354.34 540.26,377.89 542.87,427.93 512.63,457.22 498.83,454.90 542.58,440.40 524.49,388.01 489.55,325.03 472.54,324.12 501.40,304.05 523.85,323.62 525.23,374.67 512.84,412.12 536.06,402.57 543.30,437.91 519.32,458.09 500.24,443.16 509.36,421.02 543.00,386.95 517.23,328.22 492.64,307.88 526.85,330.36 543.94,357.08 526.91,371.64 529.80,410.83 539.75,444.50 548.43,452.89 527.27,457.34 504.03,425.52 506.91,344.37 512.73,308.79 479.42,314.59 502.00,315.93 543.98,354.12 550.68,403.68 503.13,417.88 522.75,445.26 544.36,450.37 540.08,385.39 496.69,311.12 482.33,353.57 494.22,313.71 511.09,307.98 510.88,330.46 510.42,357.14 515.61,370.27 540.76,368.11 546.20,397.50 545.63,428.05 526.95,454.80 512.50,457.72 511.50,450.75 532.20,422.97 513.92,367.74 488.66,318.99 478.47,313.87 507.12,305.12 524.29,336.78 521.86,391.21 521.74,411.83 559.83,422.95 552.86,450.96 484.97,431.99 484.05,399.88 533.82,356.75 520.36,311.13 499.33,308.53 501.40,320.44 523.67,335.18 536.29,379.71 528.21,430.39 513.85,448.44 549.54,450.91 532.22,438.28 465.47,371.14 476.93,324.96 547.82,311.77 541.91,309.08 513.00,343.15 518.45,369.06 536.11,389.40 534.30,407.80 520.74,438.26 512.41,457.69 528.45,420.93 533.03,389.29 480.79,359.73 496.34,308.46 542.97,316.28 538.96,332.35 506.46,349.21 512.94,388.28 533.72,431.88 533.49,448.45 510.22,456.59 507.12,445.18 526.58,382.14 523.90,334.13 488.75,317.84 513.22,307.08 543.38,353.80 535.13,418.75 482.24,386.33 487.73,432.39 526.24,455.64 524.41,425.98 509.00,403.05 538.54,399.52 559.22,342.04 542.63,305.09 505.54,319.03 492.66,328.04 525.00,344.51 517.47,381.29 506.51,422.86 479.69,436.38 490.63,444.71 528.28,457.38 542.73,419.33 529.51,336.87 507.35,322.54 556.75,319.09 547.02,308.00 525.41,325.28 491.99,347.60 494.91,353.76 514.51,389.72 510.02,433.42 500.94,455.83 483.01,439.55 522.99,451.76 545.96,409.89 540.42,336.48 517.34,308.94 529.16,304.67 548.92,315.16 529.92,341.37 504.40,385.84 474.84,389.56 494.67,408.43 503.29,446.94 508.86,453.66 512.36,405.79 521.11,399.51 573.41,374.87 575.31,332.27 558.57,314.22 511.29,316.30 510.89,319.94 521.06,348.19 505.37,392.43 487.41,436.59 470.42,440.48 490.28,451.83 524.11,448.11 541.99,393.46 540.03,340.15 551.28,326.45 582.70,333.41 560.21,323.40 525.47,336.47 470.38,362.23 462.25,402.95 492.99,446.11 501.25,446.57 509.40,457.30 546.60,420.72 587.17,349.26 584.55,337.32 562.99,314.76 526.73,310.20 505.81,341.79 500.34,370.95 483.45,374.84 466.60,410.69 484.18,447.83 537.72,454.97 538.98,454.97 555.57,417.65 578.66,350.97 570.69,321.39 559.79,316.63 512.83,305.51 486.75,332.93 481.33,383.37 499.09,398.14 485.38,424.53 501.86,455.65 556.91,429.84 592.08,387.66 575.15,396.53 571.70,337.37 550.57,310.29 531.88,322.30 514.64,330.48 482.24,327.97 468.45,364.06 474.52,409.43 512.92,450.51 559.82,446.17 566.98,380.35 546.08,430.06 571.73,381.67 570.63,326.18 517.31,302.72 491.20,314.47 490.49,327.78 518.84,354.00 507.72,383.81 498.89,416.17 478.58,442.95 488.58,451.60 512.78,455.27 554.80,446.84 572.57,417.86 573.98,369.67 537.37,312.14 522.63,302.26 517.66,318.92 541.49,330.80 517.35,345.68 487.41,385.84 493.70,432.16 523.61,455.40 521.13,457.43 505.28,444.49 529.96,400.10 554.61,335.18 584.37,337.54 563.14,315.90 522.98,309.58 504.90,345.41 502.90,398.59 509.47,404.64 475.65,414.70 477.52,440.42 494.83,451.88 556.44,438.93" fill="none" stroke="#f59e0b" stroke-width="2.2" stroke-linecap="round" stroke-linejoin="round" opacity="0.85"/>
<polyline points="558.31,359.89 557.76,360.38 557.21,360.88 556.66,361.38 556.11,361.89 555.56,362.40 555.01,362.92 554.46,363.44 553.91,363.97 553.36,364.50 552.81,365.04 552.26,365.58 551.71,366.13 551.16,366.68 550.61,367.24 550.05,367.81 549.50,368.38 548.95,368.95 548.40,369.53 547.85,370.12 547.29,370.72 546.74,371.32 546.18,371.93 545.63,372.54 545.07,373.17 544.51,373.80 543.95,374.44 543.39,375.09 542.83,375.75 542.27,376.42 541.70,377.10 541.13,377.79 540.57,378.49 539.99,379.20 539.42,379.92 538.85,380.66 538.27,381.41 537.69,382.17 537.10,382.95 536.52,383.74 535.93,384.55 535.34,385.38 534.74,386.22 534.14,387.08 533.54,387.95 532.93,388.85 532.32,389.76 531.70,390.69 531.08,391.64 530.46,392.61 529.83,393.60 529.19,394.61 528.55,395.65 527.90,396.70 527.25,397.78 526.59,398.88 525.93,400.00 525.26,401.14 524.58,402.30 523.89,403.49 523.20,404.69 522.50,405.92 521.79,407.17 521.07,408.43 520.35,409.72 519.62,411.02 518.87,412.33 518.12,413.66 517.36,415.00 516.59,416.34 515.81,417.68 515.02,419.03 514.22,420.36 513.42,421.67 512.60,422.96 511.78,424.21 510.96,425.42 510.13,426.57 509.30,427.65 508.47,428.66 507.64,429.58 506.82,430.41 506.01,431.14 505.21,431.78 504.43,432.31 503.66,432.76 502.92,433.11 502.19,433.38 501.48,433.56 500.78,433.68 500.11,433.72 499.46,433.70 498.83,433.63 498.22,433.50 497.63,433.32 497.06,433.10 496.50,432.84 495.97,432.55 495.45,432.22 494.95,431.85 494.46,431.47 494.00,431.05 493.54,430.61 493.11,430.15 492.69,429.68 492.28,429.18 491.89,428.67 491.51,428.14 491.14,427.60 490.79,427.05 490.45,426.49 490.12,425.92 489.81,425.34 489.50,424.75 489.21,424.16 488.93,423.56 488.66,422.95 488.40,422.35 488.15,421.74 487.91,421.12 487.68,420.51 487.46,419.90 487.25,419.28 487.04,418.67 486.85,418.06 486.66,417.44 486.48,416.84 486.30,416.23 486.14,415.63 485.98,415.03 485.82,414.44 485.68,413.85 485.53,413.26 485.40,412.68 485.27,412.11 485.14,411.54 485.02,410.98 484.90,410.42 484.79,409.87 484.68,409.33 484.57,408.80 484.47,408.27 484.37,407.75 484.27,407.24 484.18,406.73 484.09,406.23 484.00,405.74 483.92,405.26 483.83,404.79 483.75,404.32 483.67,403.86 483.60,403.41 483.52,402.97 483.45,402.53 483.37,402.10 483.30,401.68 483.23,401.27 483.16,400.87 483.09,400.47 483.03,400.08 482.96,399.70 482.89,399.33 482.83,398.96 482.76,398.61 482.70,398.26 482.64,397.91 482.57,397.58 482.51,397.25 482.45,396.93 482.39,396.62 482.32,396.31 482.26,396.02 482.20,395.73 482.14,395.44 482.08,395.17 482.02,394.90 481.96,394.64 481.90,394.39 481.84,394.14 481.78,393.91 481.73,393.68 481.67,393.46 481.61,393.24 481.55,393.04 481.49,392.84 481.43,392.65 481.38,392.46 481.32,392.29 481.26,392.12 481.21,391.96 481.15,391.81 481.09,391.67 481.04,391.54 480.98,391.41 480.93,391.30 480.87,391.19 480.82,391.09 480.76,391.00 480.71,390.92 480.66,390.85 480.60,390.78 480.55,390.73 480.50,390.68 480.45,390.64 480.40,390.62 480.35,390.60 480.30,390.59 480.25,390.59 480.20,390.60 480.15,390.62 480.11,390.66 480.06,390.70 480.02,390.75 479.97,390.81 479.93,390.88 479.89,390.96 479.84,391.05 479.80,391.15 479.76,391.26 479.72,391.38 479.68,391.51 479.65,391.65 479.61,391.80 479.57,391.97 479.54,392.14 479.50,392.32 479.47,392.52 479.44,392.72 479.41,392.94 479.38,393.16 479.35,393.40 479.32,393.64 479.29,393.90 479.26,394.16 479.24,394.44 479.21,394.73 479.19,395.03 479.16,395.33 479.14,395.65 479.12,395.98 479.10,396.32 479.08,396.67 479.06,397.03 479.04,397.40 479.02,397.77 479.00,398.16 478.98,398.56 478.97,398.97 478.95,399.39 478.93,399.81 478.92,400.25 478.90,400.69 478.89,401.15 478.87,401.62 478.86,402.09 478.85,402.57 478.83,403.07 478.82,403.57 478.80,404.08 478.79,404.60 478.78,405.13 478.77,405.67 478.75,406.21 478.74,406.77 478.73,407.33 478.71,407.90 478.70,408.49 478.69,409.08 478.67,409.67 478.66,410.28 478.65,410.90 478.63,411.52 478.62,412.15 478.61,412.79 478.59,413.43 478.58,414.09 478.57,414.75 478.55,415.42 478.54,416.10 478.52,416.78 478.51,417.47 478.49,418.16 478.48,418.86 478.47,419.57 478.45,420.28 478.44,421.00 478.42,421.72 478.41,422.44 478.40,423.16 478.38,423.89 478.37,424.61 478.36,425.34 478.35,426.06 478.35,426.77 478.34,427.48 478.34,428.18 478.34,428.87 478.34,429.54 478.35,430.20 478.37,430.83 478.39,431.44 478.41,432.02 478.45,432.56 478.50,433.07 478.56,433.53 478.64,433.93 478.73,434.28 478.85,434.57 478.98,434.79 479.15,434.94 479.34,435.02 479.56,435.02 479.81,434.95 480.09,434.82 480.40,434.61 480.75,434.34 481.13,434.01 481.55,433.62 481.99,433.19 482.47,432.71 482.97,432.19 483.50,431.63 484.06,431.04 484.64,430.42 485.24,429.78 485.87,429.12 486.52,428.44 487.18,427.75 487.86,427.04 488.56,426.32 489.27,425.59 490.00,424.85 490.74,424.11 491.49,423.36 492.26,422.61 493.03,421.85 493.82,421.10 494.61,420.34 495.41,419.59 496.22,418.83 497.04,418.08 497.86,417.32 498.69,416.57 499.52,415.82 500.36,415.08 501.21,414.33 502.06,413.59 502.91,412.86 503.77,412.12 504.63,411.39 505.50,410.67 506.37,409.95 507.24,409.23 508.12,408.51 509.00,407.80 509.89,407.10 510.78,406.39 511.67,405.69 512.57,405.00 513.47,404.31 514.38,403.62 515.29,402.94 516.21,402.25 517.13,401.58 518.06,400.90 518.99,400.23 519.93,399.57 520.88,398.90 521.84,398.24 522.80,397.59 523.78,396.93 524.76,396.28 525.75,395.64 526.75,394.99 527.76,394.35 528.78,393.71 529.81,393.08 530.86,392.45 531.91,391.82 532.98,391.20 534.06,390.58 535.15,389.97 536.26,389.35 537.37,388.75 538.50,388.14 539.65,387.54 540.80,386.95 541.97,386.36 543.15,385.78 544.35,385.20 545.56,384.62 546.78,384.05 548.01,383.49 549.25,382.93 550.51,382.38 551.77,381.84 553.05,381.30 554.34,380.77 555.64,380.25 556.94,379.74 558.26,379.23 559.58,378.74 560.91,378.25 562.24,377.77 563.58,377.30 564.93,376.85 566.27,376.40 567.62,375.97 568.96,375.55 570.30,375.14 571.63,374.75 572.96,374.37 574.28,374.01 575.58,373.67 576.86,373.34 578.12,373.03 579.35,372.75 580.55,372.49 581.70,372.25 582.81,372.04 583.86,371.85 584.84,371.70 585.74,371.57 586.56,371.47 587.28,371.40 587.90,371.37 588.41,371.36 588.82,371.37 589.12,371.41 589.32,371.47 589.42,371.54 589.42,371.63 589.34,371.74 589.18,371.85 588.94,371.97 588.65,372.10 588.29,372.23 587.88,372.36 587.42,372.50 586.93,372.64 586.39,372.78 585.82,372.93 585.21,373.07 584.58,373.21 583.93,373.36 583.25,373.50 582.55,373.64 581.83,373.78 581.09,373.92 580.34,374.06 579.57,374.20 578.79,374.34 578.00,374.48 577.20,374.61 576.39,374.75 575.56,374.88 574.73,375.01 573.89,375.14 573.05,375.27 572.19,375.40 571.33,375.52 570.47,375.64 569.59,375.77 568.71,375.89 567.83,376.00 566.94,376.12 566.05,376.23 565.16,376.35 564.26,376.46 563.36,376.56 562.45,376.67 561.54,376.77 560.63,376.87 559.71,376.96 558.80,377.06 557.88,377.15 556.96,377.23 556.04,377.32 555.12,377.39 554.20,377.47 553.27,377.54 552.35,377.61 551.43,377.67 550.51,377.72 549.59,377.77 548.68,377.82 547.77,377.86 546.86,377.89 545.95,377.92 545.06,377.94 544.17,377.96 543.28,377.96 542.41,377.96 541.54,377.96 540.69,377.94 539.85,377.92 539.02,377.89 538.21,377.85 537.41,377.80 536.64,377.75 535.88,377.69 535.15,377.62 534.43,377.54 533.75,377.46 533.08,377.37 532.45,377.27 531.84,377.17 531.26,377.06 530.71,376.95 530.19,376.83 529.70,376.72 529.24,376.59 528.82,376.47 528.42,376.34 528.05,376.22 527.72,376.09 527.42,375.96 527.14,375.84 526.90,375.71 526.68,375.59 526.49,375.47 526.33,375.35 526.20,375.24 526.09,375.13 526.02,375.03 525.96,374.93 525.93,374.84 525.93,374.75 525.95,374.67 525.99,374.59 526.06,374.52 526.15,374.46 526.27,374.41 526.40,374.36 526.56,374.32 526.75,374.29 526.95,374.27 527.18,374.26 527.43,374.26 527.70,374.26 527.99,374.28 528.31,374.31 528.65,374.35 529.02,374.41 529.40,374.48 529.82,374.56 530.25,374.65 530.72,374.76 531.20,374.89 531.72,375.04 532.26,375.20 532.82,375.39 533.42,375.60 534.04,375.83 534.69,376.09 535.37,376.37 536.08,376.69 536.81,377.04 537.57,377.42 538.36,377.85 539.16,378.32 539.98,378.84 540.82,379.40 541.65,380.03 542.47,380.71 543.26,381.45 544.02,382.26 544.71,383.11 545.33,384.02 545.85,384.96 546.27,385.94 546.58,386.93 546.78,387.92 546.86,388.92 546.84,389.90 546.72,390.86 546.51,391.80 546.22,392.72 545.85,393.60 545.41,394.46 544.91,395.28 544.35,396.07 543.74,396.83 543.08,397.56 542.38,398.25 541.65,398.92 540.87,399.55 540.06,400.15 539.22,400.71 538.35,401.25 537.46,401.75 536.54,402.22 535.59,402.66 534.63,403.07 533.64,403.45 532.63,403.79 531.61,404.10 530.56,404.37 529.50,404.62 528.43,404.82 527.34,405.00 526.23,405.13 525.12,405.24 523.99,405.30 522.85,405.33 521.71,405.33 520.55,405.29 519.39,405.21 518.23,405.10 517.06,404.95 515.89,404.77 514.72,404.55 513.55,404.30 512.39,404.02 511.23,403.71 510.08,403.38 508.94,403.01 507.82,402.62 506.70,402.22 505.60,401.79 504.52,401.34 503.45,400.88 502.40,400.41 501.38,399.93 500.37,399.45 499.39,398.96 498.44,398.47 497.51,397.98 496.60,397.50 495.72,397.03 494.87,396.56 494.05,396.11 493.25,395.67 492.49,395.25 491.75,394.86 491.05,394.48 490.37,394.13 489.73,393.81 489.12,393.52 488.54,393.26 488.00,393.03 487.49,392.85 487.01,392.70 486.56,392.59 486.15,392.54 485.78,392.52 485.44,392.56 485.13,392.65 484.86,392.79 484.62,392.99 484.42,393.25 484.26,393.57 484.12,393.95 484.02,394.39 483.96,394.90 483.93,395.47 483.92,396.10 483.95,396.81 484.01,397.57 484.09,398.41 484.20,399.30 484.34,400.26 484.49,401.28 484.66,402.36 484.85,403.49 485.06,404.67 485.27,405.90 485.49,407.17 485.71,408.47 485.93,409.80 486.15,411.16 486.37,412.52 486.57,413.90 486.76,415.27 486.93,416.63 487.07,417.96 487.20,419.27 487.29,420.54 487.36,421.76 487.39,422.91 487.39,424.00 487.35,425.02 487.28,425.94 487.16,426.77 487.02,427.51 486.83,428.13 486.61,428.65 486.36,429.05 486.08,429.33 485.78,429.50 485.45,429.55 485.10,429.47 484.73,429.28 484.36,428.98 483.98,428.57 483.60,428.05 483.22,427.43 482.85,426.71 482.50,425.91 482.16,425.02 481.84,424.06 481.55,423.03 481.30,421.94 481.07,420.79 480.89,419.59 480.74,418.36 480.65,417.09 480.60,415.79 480.60,414.47 480.65,413.14 480.77,411.81 480.94,410.47 481.17,409.14 481.47,407.83 481.84,406.54 482.27,405.27 482.77,404.04 483.35,402.85 484.00,401.71 484.72,400.62 485.52,399.61 486.40,398.66 487.35,397.80 488.38,397.03 489.48,396.35 490.65,395.78 491.89,395.33 493.20,395.01 494.57,394.81 495.99,394.76 497.46,394.85 498.97,395.09 500.50,395.48 502.05,396.03 503.60,396.74 505.15,397.59 506.67,398.60 508.16,399.74 509.61,401.02 510.99,402.43 512.30,403.95 513.53,405.57 514.68,407.28 515.73,409.07 516.67,410.92 517.50,412.83 518.23,414.78 518.83,416.76 519.32,418.75 519.69,420.75 519.93,422.75 520.06,424.73 520.06,426.69 519.94,428.62 519.70,430.50 519.35,432.32 518.87,434.08 518.27,435.77 517.57,437.37 516.75,438.88 515.82,440.27 514.80,441.55 513.68,442.69 512.47,443.68 511.19,444.52 509.86,445.17 508.49,445.64 507.10,445.90 505.71,445.96 504.37,445.80 503.09,445.42 501.90,444.83 500.83,444.03 499.91,443.03 499.16,441.85 498.60,440.50 498.23,439.01 498.06,437.39 498.11,435.66 498.36,433.84 498.83,431.95 499.49,430.00 500.35,428.03 501.40,426.04 502.62,424.04 504.02,422.07 505.56,420.13 507.25,418.24 509.07,416.42 511.00,414.69 513.01,413.06 515.09,411.56 517.21,410.20 519.34,409.01 521.45,408.01 523.51,407.21 525.46,406.63 527.28,406.29 528.93,406.20 530.36,406.36 531.54,406.77 532.45,407.44 533.07,408.33 533.39,409.45 533.39,410.76 533.11,412.25 532.54,413.89 531.71,415.65 530.64,417.51 529.37,419.44 527.92,421.42 526.33,423.43 524.62,425.46 522.83,427.48 520.99,429.48 519.14,431.44 517.30,433.35 515.53,435.19 513.85,436.94 512.31,438.57 510.97,440.07 509.88,441.41 509.10,442.55 508.69,443.46 508.72,444.10 509.24,444.45 510.27,444.45 511.82,444.10 513.86,443.37 516.29,442.28 519.01,440.84 521.86,439.10 524.69,437.10 527.35,434.89 529.71,432.52 531.63,430.06 533.04,427.54 533.84,425.02 533.99,422.52 533.43,420.09 532.14,417.77 530.10,415.58 527.33,413.57 523.86,411.78 519.82,410.28 515.39,409.14 510.88,408.44 506.64,408.26 503.01,408.65 500.28,409.66 498.64,411.31 498.25,413.63 499.21,416.62 501.62,420.30 505.53,424.65 510.81,429.49 516.71,434.18 521.35,437.23 523.07,437.17 521.80,433.29 518.57,425.51 514.90,414.07 513.51,399.69 520.33,388.30 537.20,390.22 555.62,409.60 549.92,428.48 532.07,426.04 519.16,409.37 525.86,392.06 545.42,405.99 555.95,438.52 542.79,449.68 530.00,443.37 518.87,432.59 510.53,419.91 506.15,407.72 506.49,399.74 509.65,400.28 509.85,409.99 499.53,423.72 475.20,423.94 471.03,404.56 486.82,393.55 501.65,394.13 491.26,385.43 472.38,361.65 469.43,345.95 491.61,358.27 515.41,363.96 520.26,340.42 522.09,319.54 540.06,328.62 556.20,341.46 555.83,349.95 542.30,347.20 548.77,354.20 566.32,378.97 572.70,402.68 560.20,395.94 547.81,390.52 535.39,392.34 521.37,399.71 503.74,410.31 480.75,421.64 454.93,416.85 462.99,391.17 487.49,378.76 501.47,386.47 492.89,378.43 490.53,353.13 509.79,339.31 523.25,353.51 533.17,368.88 542.91,376.51 555.80,374.95 573.63,371.61 573.67,392.32 553.63,414.28 529.36,404.09 526.87,387.45 521.28,391.75 495.56,395.44 457.61,382.65 448.22,357.83 457.31,347.93 468.10,341.09 479.38,336.37 491.17,333.77 504.90,334.61 524.02,340.88 547.39,350.21 566.15,358.53 575.03,364.71 577.87,372.35 575.27,389.08 555.66,412.15 511.58,422.26 488.32,399.94 480.25,385.34 472.09,376.81 471.01,363.22 482.20,343.27 507.85,342.79 533.44,346.07 557.38,352.19 576.50,363.77 577.28,387.05 572.43,407.71 563.54,408.16 542.08,406.73 503.96,402.83 464.21,387.94 447.80,358.63 456.86,349.28 470.19,346.36 490.42,349.37 516.77,354.22 548.29,359.26 572.64,366.79 592.20,382.09 592.15,404.94 565.69,425.94 513.19,417.95 465.98,407.90 450.96,386.99 457.68,355.85 507.86,353.86 541.07,362.09 574.23,374.69 593.47,403.82 575.49,419.17 521.67,416.79 462.46,397.54 443.35,381.43 456.61,360.07 490.94,351.85 528.13,362.29 564.89,369.12 595.23,394.55 575.12,421.77 519.24,416.32 462.58,394.81 446.10,371.02 460.69,351.43 497.88,355.39 528.18,355.47 561.80,368.29 592.55,401.37 562.61,400.56 522.01,374.48 482.49,375.75 456.11,368.61 461.49,350.01 474.51,343.58 490.41,352.06 517.54,364.74 554.99,376.64 571.87,381.34 584.91,388.16 593.85,398.74 577.42,409.99 545.11,414.10 504.79,395.63 489.03,370.77 474.17,358.22 468.67,353.50 483.84,351.32 510.32,346.87 527.87,348.13 543.71,361.69 564.49,383.04 589.85,405.32 577.12,400.78 556.34,397.15 525.66,398.04 483.15,390.43 456.88,361.06 464.68,341.26 474.48,340.55 494.99,350.28 526.23,360.54 554.16,367.86 571.48,376.72 577.66,392.16 577.32,413.10 569.03,427.37 543.50,406.93 513.20,388.47 477.32,374.03 460.03,353.66 471.68,331.45 489.70,331.01 509.26,345.97 537.76,368.26 572.83,392.46 581.33,398.22 580.26,406.82 567.79,419.15 538.57,427.76 499.85,402.06 482.77,372.05 472.82,357.59 470.11,347.78 480.12,338.07 507.95,340.86 528.63,348.17 543.41,365.67 561.50,392.72 581.39,413.06 580.26,411.48 560.64,414.35 515.86,402.99 472.69,367.30 465.43,344.47 465.77,341.48 476.84,344.41 499.18,348.20 526.68,361.26 553.56,377.04 572.13,396.60 566.91,411.87 561.07,424.90 544.13,410.41 510.02,396.24 471.65,378.17 453.55,348.84 469.98,332.40 484.38,332.86 511.81,352.25 550.08,373.04 567.55,383.71 577.82,402.23 571.21,423.51 544.97,420.29 524.02,398.31 498.21,384.18 471.78,362.14 460.00,336.45 490.25,344.38 519.82,354.93 538.72,369.53 545.72,392.89 559.66,418.78 554.67,428.44 519.27,419.92 487.10,411.29 469.28,397.27 465.38,367.52 465.88,341.63 475.61,346.22 488.25,354.33 513.75,361.28 546.01,377.83 572.54,408.66 570.52,424.02 565.87,430.13 550.22,425.83 509.13,408.12 474.15,388.65 454.30,371.88 454.98,351.71 477.01,342.32 500.04,356.80 514.10,371.86 538.57,383.53 565.48,403.36 572.76,427.78 566.43,437.99 550.52,423.32 517.62,397.24 468.12,366.40 468.07,355.27 475.37,345.98 486.20,336.57 508.21,356.56 538.27,384.22 562.90,414.17 562.14,422.09 561.67,431.92 538.35,413.59 509.85,389.70 483.33,363.00 460.26,333.89 481.42,345.74 505.49,362.22 525.96,377.40 546.53,392.85 563.05,404.88 554.07,399.38 543.08,395.93 516.32,376.94 487.69,341.09 486.96,323.17 488.82,315.31 492.18,324.72 498.41,341.98 507.83,360.44 519.23,378.16 534.68,395.12 553.22,409.81 558.11,424.97 550.82,436.79 535.64,441.41 523.82,439.38 516.47,424.54 501.04,390.48 470.51,348.48 464.63,346.58 470.16,346.67 484.78,344.70 506.38,350.63 528.82,373.50 531.03,394.69 532.94,408.60 540.64,420.07 547.95,430.80 541.37,437.63 511.28,423.59 489.87,406.18 478.83,381.77 475.75,349.29 477.64,326.12 482.16,338.83 489.12,351.13 508.04,362.10 533.26,383.60 554.54,419.52 547.30,430.76 540.89,436.27 535.86,434.60 522.36,413.64 487.74,378.85 465.10,365.16 465.12,357.07 479.76,344.18 497.15,341.54 512.04,360.53 521.78,374.68 536.10,386.62 554.39,403.14 572.37,428.54 556.96,434.97 536.24,433.31 518.01,419.09 495.94,376.24 466.86,338.99 465.02,338.38 475.61,337.00 500.89,345.38 527.26,372.14 536.01,398.42 548.03,415.78 558.05,428.43 547.00,438.07 518.66,425.61 498.20,398.01 481.23,355.91 469.12,328.36 470.51,336.73 483.06,343.80 509.67,358.82 538.68,386.36 545.79,410.10 553.07,429.92 560.73,437.88 550.80,430.38 510.54,414.84 487.65,398.24 478.08,364.93 476.60,338.05 484.41,339.05 492.95,347.01 512.65,356.90 538.23,375.57 564.24,405.76 560.18,419.65 552.68,431.36 548.52,432.90 524.91,397.51 493.63,361.21 491.22,338.13 503.83,337.94 515.88,336.82 524.42,351.87 536.79,372.65 551.55,396.30 570.81,425.61 557.43,428.70 530.73,421.88 499.60,412.75 474.50,405.37 475.18,375.27 475.65,343.51 475.82,324.04 493.69,342.07 513.13,359.66 532.82,374.05 553.28,385.98 559.70,406.47 547.39,430.30 527.82,442.44 521.26,434.27 499.81,407.05 459.58,364.80 467.40,353.31 477.73,343.90 489.95,335.02 508.95,331.02 530.79,352.59 537.45,381.45 532.09,398.42 536.67,406.74 539.18,422.59 526.00,446.02 503.82,428.02 485.12,405.90 470.97,381.04 472.40,350.69 482.23,323.23 488.08,323.29 490.96,337.44 506.30,349.19 529.25,374.78 548.29,414.22 541.29,427.43 533.80,438.72 528.69,447.54 523.05,436.37 498.83,398.27 472.36,369.26 465.83,359.64 479.12,343.57 499.76,339.30 517.12,354.73 522.60,371.62 533.05,387.30 547.50,405.78 562.35,429.55 549.36,442.70 528.55,444.46 513.94,433.95 498.88,399.73 476.28,353.01 464.14,334.57 467.72,332.31 488.64,334.45 516.34,348.11 537.50,378.06 541.90,399.17 550.85,416.16 556.49,432.73 538.84,441.68 509.77,430.98 492.16,404.54 478.94,360.81 469.42,323.70 481.35,334.94 495.78,344.23 518.75,356.07 542.45,384.69 547.34,416.93 544.43,427.23 542.66,430.87 525.02,423.08 492.15,394.88 473.60,371.33 479.60,347.95 486.97,328.12 492.90,318.54 510.56,342.42 530.89,365.90 549.74,381.73 549.24,395.65 545.00,417.56 528.54,428.66 509.01,410.38 488.84,391.55 483.50,371.77 481.72,348.65 484.50,328.89 496.13,317.12 516.50,344.86 531.88,376.83 544.02,407.09 554.11,429.07 547.91,422.23 532.50,415.07 499.39,392.35 503.79,364.96 510.27,336.30 520.56,317.85 516.57,318.37 514.63,334.42 527.75,358.61 543.01,373.47 547.13,385.48 543.67,404.99 539.45,429.87 540.81,450.19 540.60,425.44 533.84,396.88 519.67,366.94 501.18,335.68 501.09,317.31 518.76,314.14 530.41,323.39 529.74,341.89 531.47,371.42 538.92,409.66 542.78,427.96 542.45,442.95 537.82,455.63 521.82,447.98 503.84,426.96 492.15,390.99 502.49,353.90 508.79,325.13 509.19,306.74 512.57,314.60 528.88,333.95 543.96,356.50 547.29,379.61 541.61,412.03 536.92,446.63 538.35,446.61 529.75,437.99 507.79,409.38 489.44,355.89 504.92,322.55 515.24,310.11 517.54,317.84 526.16,338.98 543.76,367.78 550.29,386.42 543.21,409.87 532.47,438.81 525.41,453.04 519.21,441.73 501.92,411.16 486.76,360.58 495.63,312.41 512.60,305.11 520.59,315.96 530.06,344.17 544.54,381.02 549.92,405.01 539.60,428.46 524.04,452.83 511.10,436.25 492.05,412.60 488.43,365.01 495.56,318.66 512.66,315.92 517.68,324.61 519.44,356.10 528.29,389.53 537.93,425.47 526.84,435.24 508.65,443.92 496.34,445.37 499.89,418.43 498.96,371.92 486.37,321.57 491.49,327.41 504.28,333.56 521.91,346.53 533.06,374.95 524.59,403.10 515.88,414.21 516.62,422.48 516.96,431.68 509.46,436.92 493.45,408.39 487.42,379.77 492.33,352.83 509.17,326.75 520.82,307.95 516.39,316.13 514.87,330.50 523.18,356.31 527.69,393.79 518.26,428.43 512.15,443.31 515.25,445.94 515.82,436.36 503.20,398.01 494.22,356.41 499.52,322.04 516.68,309.95 521.61,325.42 517.71,347.21 524.29,374.21 528.46,412.96 518.43,443.56 512.63,454.87 515.68,439.77 512.16,400.36 504.99,350.33 508.64,313.25 520.89,315.25 525.08,323.23 522.65,351.63 529.64,380.55 536.06,405.09 534.57,434.11 522.58,452.83 521.66,437.26 526.84,409.05 515.36,368.76 509.56,322.68 519.92,308.10 522.71,314.71 519.25,342.05 521.12,378.37 528.21,412.40 526.50,440.27 517.80,444.45 515.16,441.40 515.34,397.98 500.16,348.07 496.05,332.62 506.28,322.64 518.36,338.24 518.50,365.69 516.86,388.79 522.99,406.72 529.68,430.63 524.84,455.98 508.49,438.97 497.59,414.24 498.56,375.78 501.45,332.91 491.96,312.90 493.21,325.38 507.04,340.95 522.43,367.72 532.76,405.63 525.19,422.24 519.30,434.39 517.75,444.76 520.03,446.89 512.86,420.37 489.08,383.80 478.69,366.94 489.15,346.68 503.91,331.43 514.16,331.75 517.18,357.08 521.60,382.72 528.84,406.91 539.58,427.30 538.52,439.85 517.19,441.30 495.34,432.89 494.84,410.95 493.07,364.81 484.58,314.46 494.22,326.05 505.47,337.41 518.78,347.89 535.49,364.42 539.52,395.43 528.02,419.48 516.31,427.41 516.80,431.00 509.39,426.06 481.64,400.46 483.08,371.05 488.29,345.50 496.53,323.29 511.78,309.92 524.70,331.93 523.57,359.15 513.64,375.59 518.49,386.60 525.12,411.18 521.71,447.57 507.07,444.99 498.03,435.93 494.59,421.71 501.31,389.67 504.06,341.25 495.01,320.10 491.67,322.25 506.06,330.31 520.02,353.50 524.03,388.34 519.11,404.68 518.98,420.20 523.13,436.13 528.18,447.63 513.97,429.41 494.35,405.16 489.73,383.76 498.69,350.48 505.50,318.66 502.55,316.62 503.80,329.24 514.73,347.55 528.05,376.24 536.66,415.98 528.21,431.17 519.32,444.27 517.25,452.02 511.63,408.30 498.38,354.65 485.10,324.31 493.33,310.05 510.84,309.68 525.65,329.68 524.90,360.69 526.37,384.78 532.66,413.50 530.05,450.04 513.57,443.24 500.06,431.18 499.72,388.47 493.11,330.64 493.45,320.38 500.28,316.24 517.74,328.98 530.34,362.26 525.33,392.74 525.45,412.21 528.54,432.82 520.36,452.42 504.60,423.75 491.92,389.97 495.67,349.68 503.16,316.38 498.18,314.63 500.01,327.25 515.77,352.13 528.41,388.81 527.84,419.99 528.57,439.72 533.16,441.94 532.81,438.74 516.68,421.41 502.43,370.98 503.40,324.67 512.70,305.84 512.38,324.04 518.83,350.41 535.27,381.77 541.79,403.97 539.00,426.36 531.93,449.44 528.17,447.11 522.21,425.10 504.42,381.22 494.32,325.60 505.14,313.16 507.98,312.97 514.92,349.50 529.44,387.28 530.18,418.77 522.40,450.18 512.93,432.61 509.26,406.26 507.73,352.86 500.07,332.52 491.26,313.66 494.44,314.90 506.82,324.44 519.15,339.31 528.32,361.17 527.10,387.94 526.96,412.22 529.47,434.54 534.91,446.96 536.76,450.37 528.05,444.68 505.07,414.44 490.73,375.84 492.87,336.33 501.85,309.14 501.93,317.39 507.20,333.50 523.44,365.76 535.10,410.54 530.70,430.40 529.59,453.02 523.34,433.04 503.12,397.16 495.57,356.45 493.65,319.76 505.99,304.85 518.57,319.54 519.86,348.47 520.25,374.60 528.65,405.46 532.63,443.91 521.14,445.66 514.37,442.40 510.11,388.48 497.68,327.94 510.86,323.85 521.05,318.69 530.70,335.54 532.18,359.62 526.73,388.51 524.87,421.02 530.23,444.60 529.87,452.46 518.52,436.45 511.14,389.27 519.26,345.26 521.40,309.17 519.18,315.80 524.65,330.67 530.18,362.98 530.62,395.02 522.78,419.81 518.13,446.30 522.64,455.69 521.22,445.71 510.57,405.60 509.69,341.36 519.06,315.91 515.57,305.45 513.77,348.89 522.96,394.48 508.55,406.11 498.26,438.45 499.66,444.71 514.93,439.21 536.72,412.39 534.35,365.14 521.86,338.01 522.20,324.69 522.99,323.16 513.91,333.96 501.83,356.99 495.48,378.15 497.40,400.57 505.38,427.08 504.28,448.82 498.34,440.11 507.08,424.41 526.11,386.23 538.08,329.72 524.37,316.41 516.29,312.96 515.93,317.51 516.66,340.07 505.74,373.09 493.22,392.86 491.79,408.18 501.25,427.98 512.74,444.20 512.95,424.29 516.21,401.92 531.11,373.82 544.01,336.64 536.17,306.42 517.99,318.31 509.24,334.38 506.55,360.07 500.70,395.42 486.48,419.63 482.84,425.56 495.31,430.94 515.76,425.51 538.90,393.12 533.81,358.37 531.27,331.38 533.90,312.80 533.92,318.24 518.26,338.43 498.98,358.17 490.43,373.76 492.41,400.53 495.28,432.66 495.36,445.03 500.26,439.69 522.06,420.04 548.42,382.73 564.84,329.86 543.18,324.67 525.25,326.08 517.32,332.25 508.26,367.26 497.37,404.92 483.93,435.95 503.65,442.51 538.16,435.50 561.03,425.41 563.42,387.02 563.80,337.75 556.98,319.78 544.89,319.81 520.95,329.93 494.10,351.98 481.00,387.79 488.29,410.56 493.61,430.41 508.34,445.01 545.14,438.00 571.62,416.65 575.20,386.11 564.51,343.52 547.07,309.95 526.99,330.29 507.12,349.19 486.61,368.57 482.09,402.98 496.76,437.07 512.64,441.61 531.23,434.78 560.31,406.57 576.59,366.38 581.29,341.25 561.25,328.14 533.40,320.73 507.12,323.53 497.19,354.30 486.93,386.73 475.34,412.83 488.07,419.53 514.49,428.43 554.18,413.26 553.73,383.58 551.74,348.28 549.14,324.67 541.95,324.34 527.18,326.45 503.46,332.07 493.94,358.60 486.63,387.89 483.88,417.08 496.12,432.49 509.81,446.81 522.95,457.49 531.75,432.27 545.96,394.53 565.12,356.67 562.18,339.04 550.76,323.71 531.90,315.17 513.91,338.60 507.83,366.15 509.84,384.93 504.01,403.75 501.61,429.39 516.23,456.29 538.17,437.41 554.14,411.08 559.70,372.91 553.15,331.16 552.93,316.48 548.70,328.11 531.00,341.65 509.90,367.81 494.46,406.43 503.27,422.83 511.68,436.00 517.02,447.18 541.58,411.60" fill="none" stroke="#16a34a" stroke-width="2.2" stroke-linecap="round" stroke-linejoin="round" opacity="0.85"/>
<polyline points="520.00,380.00 546.65,423.10 546.88,419.37" fill="none" stroke="#1d4ed8" stroke-width="5" stroke-linecap="round" stroke-linejoin="round"/>
<circle cx="520.00" cy="380.00" r="7" fill="#111827"/>
<circle cx="546.65" cy="423.10" r="12" fill="#f97316"/>
<circle cx="546.88" cy="419.37" r="12" fill="#dc2626"/>
</svg>