<?xml version="1.0" encoding="UTF-8"?>
<svg xmlns="http://www.w3.org/2000/svg" width="960" height="760" viewBox="0 0 960 760">
<rect width="100%" height="100%" fill="#ffffff"/>
<style>
text{font-family:'Segoe UI','Yu Gothic UI',sans-serif}
.mono{font-family:Consolas,'Courier New',monospace}
</style>
<text x="28" y="38" font-size="24" font-weight="700" fill="#111827">2D Double Pendulum</text>
<text x="28" y="62" font-size="12" fill="#4b5563">Chaotic trajectory with adaptive playback-friendly sampling</text>
<line x1="201.00" y1="380.00" x2="759.00" y2="380.00" stroke="#e5e7eb" stroke-width="2"/>
<line x1="480.00" y1="659.00" x2="480.00" y2="101.00" stroke="#e5e7eb" stroke-width="2"/>
<polyline points="575.44,446.83 575.45,447.05 575.50,448.19 575.59,450.32 575.67,452.30 575.83,456.15 576.01,461.08 576.20,467.15 576.34,471.86 576.54,479.97 576.71,489.37 576.84,500.13 576.90,508.06 576.95,521.13 576.95,535.56 576.93,545.90 576.93,562.39 576.98,579.80 577.18,597.65 577.40,609.35 577.77,625.31 577.46,636.25 574.14,637.61 569.17,633.11 558.24,621.95 544.71,608.87 534.89,600.03 519.55,587.24 503.88,575.41 488.18,564.76 477.75,558.37 462.16,549.85 446.58,542.55 430.89,536.33 420.30,532.69 404.16,527.82 387.69,523.47 376.54,520.77 359.62,516.91 342.56,513.23 325.50,509.69 314.19,507.41 297.43,504.12 281.05,500.95 265.26,497.82 255.23,495.64 241.42,491.97 230.16,487.25 225.04,483.22 222.61,475.79 226.78,467.71 235.95,460.30 243.89,456.09 257.57,451.04 272.59,447.54 288.39,445.52 299.14,444.95 315.35,445.14 331.40,446.47 341.91,447.91 357.20,450.83 371.79,454.58 385.60,459.15 394.37,462.68 407.00,468.79 419.27,476.02 431.61,484.47 440.14,490.78 453.77,501.15 468.74,512.38 479.60,520.17 497.24,532.05 516.39,543.85 536.84,555.32 551.06,562.67 573.07,573.05 595.62,582.30 618.27,589.62 632.99,592.64 652.82,592.08 665.69,582.11 668.66,570.69 666.35,550.42 658.90,529.47 648.33,509.27 640.11,496.49 626.51,478.53 611.80,462.10 596.31,447.23 585.66,438.17 569.38,425.81 552.89,414.87 541.85,408.29 525.31,399.41 508.86,391.59 492.57,384.72 481.78,380.64 465.70,375.26 449.69,370.83 433.71,367.47 423.06,365.89 407.09,364.63 391.13,364.81 380.52,365.79 364.70,368.64 349.05,373.22 333.69,379.60 323.66,384.88 309.04,394.37 295.09,405.78 282.01,419.13 273.92,429.09 262.97,445.62 253.92,463.96 249.29,477.09 245.29,497.82 246.31,518.89 254.34,538.35 263.92,549.24 283.15,561.83 305.78,570.72 329.98,577.07 346.49,580.32 371.38,584.13 396.11,587.06 420.41,589.45 436.31,590.92 459.66,593.19 482.41,595.77 497.28,597.77 519.12,601.31 540.39,605.48 560.89,610.17 573.94,613.39 592.03,617.78 607.31,620.29 618.41,618.43 623.32,613.73 628.09,602.17 631.28,587.49 633.03,577.00 635.38,561.11 637.58,545.62 639.70,530.93 641.10,521.67 643.17,508.68 645.22,496.81 647.26,486.09 648.61,479.58 650.62,470.78 652.61,463.12 653.92,458.66 655.88,452.93 657.81,448.36 659.72,444.95 660.98,443.34 662.87,441.90 664.75,441.67 666.62,442.64 667.87,443.97 669.74,446.98 671.62,451.21 672.88,454.72 674.77,461.00 676.65,468.49 678.53,477.18 679.77,483.63 681.58,494.21 683.28,505.82 684.79,518.28 685.61,526.94 686.33,540.10 685.94,552.83 684.58,560.54 679.78,569.96 670.50,576.25 656.74,580.15 645.64,582.08 626.99,584.74 606.64,587.62 585.10,591.00 570.20,593.59 547.07,597.96 523.00,602.77 506.38,606.11 480.56,611.06 453.63,615.52 425.69,618.91 406.62,620.22 377.70,620.03 349.23,615.94 323.06,606.00 308.30,595.39 291.75,574.34 281.62,549.89 277.69,533.01 275.01,507.94 275.31,483.89 277.88,461.31 280.61,447.20 285.91,427.54 292.38,409.76 299.75,393.88 305.05,384.34 313.45,371.57 322.25,360.60 328.28,354.26 337.50,346.17 346.87,339.71 356.32,334.82 362.65,332.41 372.17,330.03 381.68,329.07 391.19,329.48 397.52,330.50 407.01,333.06 416.50,336.83 422.85,339.95 432.44,345.48 442.18,351.91 452.15,359.09 458.99,364.21 469.64,372.27 480.89,380.66 492.88,389.27 501.33,395.13 514.70,404.11 528.89,413.46 538.76,419.98 554.04,430.36 569.73,441.65 585.57,454.05 596.10,463.01 611.61,477.58 626.49,493.56 640.32,510.92 648.66,523.21 659.23,542.47 666.08,561.98 666.48,579.46 661.42,587.58 646.23,591.47 626.46,587.63 612.48,582.70 591.30,573.44 570.37,562.89 549.99,551.60 536.84,543.78 517.97,531.76 500.37,519.51 484.31,507.23 474.54,499.17 461.31,487.51 449.63,476.69 442.53,470.09 432.54,461.22 422.84,453.60 412.89,447.12 405.92,443.31 394.74,438.21 382.61,433.69 369.52,429.67 360.32,427.27 345.91,424.16 330.95,421.79 320.77,420.71 305.33,419.98 289.91,420.47 274.75,422.34 264.93,424.42 250.91,428.89 238.20,435.03 227.55,442.84 222.15,448.90 217.77,458.87 219.17,468.99 223.42,475.26 233.62,483.65 246.79,491.07 261.69,497.96 272.24,502.41 288.69,509.02 305.64,515.64 322.92,522.32 334.53,526.83 352.00,533.71 369.40,540.80 380.92,545.70 398.02,553.44 414.91,561.81 431.59,570.97 442.62,577.58 459.03,588.31 475.24,599.97 491.12,612.39 501.38,620.88 515.91,633.31 528.68,643.80 535.71,648.13 543.75,647.43 550.06,637.77 556.17,622.93 560.37,611.85 566.88,594.80 573.55,578.05 580.31,562.11 584.84,552.04 591.65,537.88 598.48,524.88 603.03,516.84 609.87,505.70 616.73,495.61 623.58,486.51 628.13,480.98 634.94,473.47 641.70,466.90 648.40,461.27 652.82,458.06 659.39,454.08 665.89,451.12 670.18,449.75 676.57,448.60 682.90,448.57 689.17,449.67 693.33,451.04 699.51,454.04 705.60,458.15 711.54,463.29 715.36,467.24 720.73,473.84 725.35,481.00 727.74,485.91 729.62,493.10 728.36,499.67 723.04,505.54 717.22,509.27 705.70,515.02 691.67,521.39 675.90,528.61 664.65,533.97 646.92,542.86 628.27,552.77 615.33,559.92 595.08,571.38 573.68,583.56 550.90,596.15 534.85,604.58 509.36,616.85 482.13,627.98 453.25,636.91 433.26,640.84 402.90,641.88 374.11,634.48 349.82,618.02 336.76,603.50 321.38,579.08 310.10,553.55 304.41,536.57 298.11,511.74 294.02,488.09 291.68,465.91 290.90,452.02 290.65,432.58 291.26,414.82 292.48,398.71 293.54,388.87 295.40,375.37 297.49,363.36 298.97,356.14 301.27,346.45 303.64,338.10 306.06,331.05 307.69,327.05 310.14,322.09 312.59,318.37 315.05,315.87 316.68,314.86 319.13,314.35 321.56,315.01 323.17,316.10 325.57,318.67 327.94,322.36 330.27,327.14 331.80,330.91 334.05,337.43 336.24,344.95 338.34,353.44 339.69,359.63 341.62,369.73 343.44,380.82 344.61,388.80 346.33,401.74 348.12,415.98 350.16,431.69 351.80,443.05 354.93,461.51 359.22,481.70 365.08,503.52 370.03,518.85 379.28,542.76 390.93,567.36 400.15,583.85 416.33,608.06 435.64,630.41 458.50,648.14 475.65,654.72 502.13,652.24 525.83,636.93 545.59,615.19 556.80,599.11 571.05,574.06 582.52,548.84 588.76,532.30 596.17,508.30 601.51,485.62 605.13,464.56 606.77,451.49 608.37,433.39 609.28,417.03 609.79,402.26 610.03,393.21 610.34,380.72 610.69,369.39 610.96,362.42 611.43,352.79 611.99,344.13 612.61,336.42 613.06,331.81 613.76,325.72 614.51,320.63 615.28,316.57 615.81,314.45 616.61,312.16 617.44,310.95 617.99,310.75 618.84,311.38 619.70,313.11 620.59,315.94 621.18,318.45 622.10,323.12 623.04,328.89 624.01,335.76 624.67,340.95 625.69,349.67 626.74,359.54 627.45,366.78 628.48,378.69 629.44,391.95 630.20,406.67 630.51,417.36 630.53,434.81 629.76,454.00 627.85,474.97 625.77,489.90 621.16,513.57 614.42,538.51 608.56,555.62 597.42,581.57 582.99,606.97 564.53,630.03 549.54,642.40 523.09,652.23 494.63,648.80 467.66,635.90 451.10,624.43 428.46,605.02 408.37,584.33 390.65,563.31 380.05,549.46 365.76,529.29 353.10,510.16 345.37,498.11 334.56,481.16 324.37,465.60 314.53,451.38 308.07,442.62 298.44,430.53 288.84,419.68 279.29,410.07 272.96,404.37 263.58,396.91 254.40,390.80 248.45,387.50 239.86,383.78 231.79,381.56 224.42,380.88 219.98,381.29 214.20,383.23 209.69,386.71 206.66,391.65 205.54,395.71 205.26,402.82 206.57,411.03 208.23,417.05 211.76,426.83 216.34,437.48 221.79,448.95 225.86,457.04 232.54,469.81 239.87,483.30 247.81,497.47 253.44,507.25 262.36,522.37 271.89,537.92 278.59,548.45 289.24,564.31 300.73,579.95 313.29,594.84 322.45,604.00 337.70,615.98 355.15,625.27 374.92,631.79 389.30,634.81 412.37,637.82 436.92,639.43 453.95,639.89 480.32,639.70 507.53,638.38 535.34,635.68 554.08,632.92 582.17,626.95 609.65,618.22 635.56,606.05 651.33,595.79 671.78,577.27 687.75,555.88 695.94,540.73 704.96,517.59 710.73,494.81 713.93,472.97 714.91,459.11 714.99,439.53 713.73,421.50 711.41,405.08 709.40,395.02 705.83,381.29 701.72,369.13 698.75,361.89 694.00,352.31 688.99,344.21 683.78,337.57 680.21,333.93 674.76,329.63 669.22,326.70 663.61,325.11 659.84,324.77 654.17,325.32 648.48,327.11 644.70,328.97 639.04,332.71 633.43,337.56 627.89,343.42 624.25,347.87 618.89,355.28 613.68,363.50 608.65,372.48 605.43,378.86 600.81,389.03 596.45,399.97 593.67,407.76 589.62,420.31 585.52,434.10 581.08,449.36 577.73,460.44 571.75,478.44 564.24,498.02 554.80,518.94 547.31,533.45 534.17,555.71 518.73,578.11 507.15,592.83 487.87,613.97 466.28,632.75 442.49,646.29 426.05,649.55 403.68,641.49 387.19,621.25 375.97,595.86 370.72,577.94 365.51,550.80 363.06,524.15 363.05,498.57 364.30,482.33 367.92,459.47 373.46,438.70 378.09,426.17 386.23,409.48 395.53,395.46 405.65,384.15 412.69,378.11 423.50,371.26 434.39,366.99 445.14,365.22 452.13,365.42 462.20,367.78 471.55,372.59 477.23,377.17 484.72,386.07 490.67,397.31 494.79,410.71 496.41,420.72 497.11,437.11 495.78,454.88 492.61,473.72 489.59,486.79 483.91,507.00 477.01,527.86 471.83,542.06 463.23,563.70 453.65,585.46 442.98,606.81 435.21,620.26 422.49,637.41 409.37,645.89 399.75,638.98 396.86,627.43 396.64,605.75 399.58,582.44 402.68,566.87 408.46,544.00 415.17,522.05 422.47,501.21 427.52,487.98 435.24,469.14 442.98,451.53 450.60,435.10 455.59,424.81 462.91,410.32 470.06,396.98 474.74,388.72 481.70,377.32 488.63,367.12 495.60,358.16 500.29,352.89 507.38,346.08 514.57,340.59 521.86,336.43 526.75,334.41 534.16,332.48 541.63,331.89 546.63,332.24 554.18,333.89 561.75,336.89 569.35,341.27 574.42,344.98 582.02,351.78 589.57,360.15 597.01,370.18 601.86,377.86 608.86,390.94 615.35,406.02 619.29,417.21 624.39,435.74 628.26,456.34 630.59,478.88 631.11,494.90 630.10,520.18 626.58,546.62 620.05,573.58 613.66,591.35 600.14,616.26 580.56,635.51 563.95,642.27 536.22,641.76 508.52,632.37 482.41,618.34 466.09,607.57 443.34,590.29 422.66,572.40 403.96,554.57 392.50,542.96 376.59,526.26 361.89,510.65 352.58,500.93 339.06,487.42 325.83,475.19 312.72,464.22 304.00,457.58 290.95,448.66 278.00,440.99 265.27,434.63 256.98,431.15 245.05,427.14 233.97,424.61 227.26,423.79 218.63,423.84 212.33,425.35 209.14,428.09 208.96,430.40 211.51,434.30 216.76,438.57 223.85,443.22 229.28,446.60 238.16,452.17 247.69,458.40 257.71,465.35 264.62,470.37 275.28,478.50 286.24,487.32 293.69,493.57 305.04,503.49 316.55,514.05 328.17,525.27 335.95,533.14 347.64,545.56 359.32,558.74 370.96,572.72 378.70,582.46 390.22,597.60 401.62,613.08 409.09,623.28 420.08,637.52 430.86,648.49 442.03,652.97 450.26,651.45 464.18,644.04 479.66,633.39 496.11,621.62 507.43,613.70 524.75,602.09 542.35,591.01 554.22,583.97 572.19,573.86 590.35,564.22 608.62,554.89 620.82,548.78 639.07,539.69 657.11,530.58 674.73,521.38 686.14,515.14 702.47,505.53 717.42,495.42 726.21,488.26 736.69,476.63 742.47,463.93 742.61,450.82 739.85,442.40 732.45,430.86 722.29,420.97 710.29,412.85 701.58,408.42 687.76,403.21 673.33,399.62 663.50,398.08 648.57,396.94 633.61,397.04 618.79,398.21 609.06,399.46 594.83,401.87 581.18,404.69 568.30,407.68 560.23,409.66 549.01,412.53 538.98,415.27 532.99,417.08 525.01,419.93 518.12,423.21 512.02,427.25 508.20,430.51 502.45,436.41 496.21,443.60 488.97,451.99 483.39,458.17 473.70,468.09 462.38,478.55 453.97,485.68 440.22,496.51 425.32,507.41 409.55,518.35 398.66,525.67 381.94,536.71 364.86,547.75 347.60,558.60 336.09,565.53 319.11,574.80 303.43,581.13 294.97,582.14 288.77,576.43 291.97,563.91 301.62,549.11 310.12,539.23 324.70,525.08 340.53,512.06 356.90,500.26 367.86,493.08 384.04,483.27 399.55,474.53 409.36,469.25 423.04,462.10 435.31,455.82 446.06,450.44 452.40,447.40 460.76,443.71 468.00,441.18 474.46,439.88 478.53,439.72 484.59,440.50 490.91,442.42 495.41,444.25 502.74,447.69 510.88,451.81 519.83,456.48 526.22,459.83 536.37,465.22 547.07,471.03 558.18,477.32 565.76,481.83 577.31,489.12 589.01,497.11 596.87,502.86 608.70,512.14 620.57,522.18 632.42,532.86 640.27,540.22 651.85,551.29 662.82,561.65 672.11,569.70 676.13,572.46 676.20,571.09 668.40,564.72 655.30,556.65 644.87,551.29 627.78,543.86 609.81,537.46 597.64,533.84 579.41,529.43 561.44,526.27 543.86,524.39 532.35,523.84 515.24,524.08 498.11,525.53 480.61,528.01 468.59,530.11 449.86,533.73 430.20,537.60 416.59,540.18 395.52,543.87 373.86,547.19 351.84,550.00 337.10,551.51 315.16,553.00 293.88,553.06 274.37,550.62 263.49,546.70 253.30,536.08 252.46,520.93 256.16,509.94 265.82,493.77 278.60,478.80 293.32,465.34 303.86,457.25 320.37,446.42 337.42,437.09 354.68,429.12 366.18,424.47 383.24,418.34 399.85,412.94 410.56,409.61 425.94,404.76 440.33,399.81 453.58,394.52 461.75,390.71 472.98,384.54 483.01,377.87 491.94,370.80 497.34,365.97 504.74,358.70 511.43,351.59 515.57,347.04 521.40,340.65 526.89,334.90 532.12,329.95 535.50,327.13 540.46,323.68 545.31,321.23 550.08,319.82 553.23,319.46 557.91,319.83 562.55,321.26 565.62,322.82 570.20,326.06 574.77,330.38 579.32,335.79 582.36,340.02 586.91,347.31 591.46,355.80 596.00,365.57 598.99,372.87 603.37,385.09 607.49,398.97 610.00,409.23 613.23,426.22 615.52,445.20 616.56,466.15 616.37,481.17 614.52,505.10 610.49,530.43 603.96,556.74 598.02,574.52 586.37,600.83 570.69,625.22 557.46,638.77 533.09,650.53 505.81,648.25 479.56,635.61 463.39,624.11 441.24,604.50 421.58,583.50 404.30,562.07 394.04,547.89 380.37,527.16 368.51,507.44 361.43,495.01 351.72,477.52 342.76,461.46 334.18,446.79 328.55,437.73 320.10,425.15 311.57,413.73 302.92,403.43 297.10,397.18 288.30,388.77 279.49,381.56 273.63,377.45 264.93,372.37 256.41,368.66 248.15,366.37 242.83,365.66 235.23,365.86 228.17,367.60 221.81,370.89 218.03,373.96 213.18,379.86 209.48,387.27 207.12,396.12 206.36,402.76 206.51,413.73 208.22,425.77 210.20,434.33 214.37,447.84 219.86,462.08 226.57,476.95 231.68,487.16 240.25,502.86 249.85,518.93 260.48,535.22 268.14,546.13 280.53,562.40 294.07,578.31 303.82,588.52 319.66,602.89 337.17,615.65 356.54,626.34 370.52,632.17 393.03,639.00 417.19,643.70 442.72,646.50 460.38,647.39 487.61,647.28 515.52,645.35 534.33,642.94 562.58,637.40 590.38,629.19 616.98,617.91 633.62,608.56 656.24,591.88 675.45,572.50 690.97,551.34 699.36,536.75 709.31,514.78 716.54,493.26 720.09,479.40 723.81,459.55 725.95,441.01 726.82,423.89 726.82,413.29 726.10,398.64 724.68,385.50 722.69,373.84 721.11,366.89 718.44,357.67 715.45,349.89 713.32,345.49 709.95,340.04 706.40,335.96 702.71,333.25 700.18,332.18 696.30,331.70 692.33,332.53 688.29,334.67 685.56,336.81 681.43,341.09 677.27,346.63 674.48,351.01 670.30,358.60 666.12,367.41 661.95,377.42 659.18,384.75 655.02,396.78 650.82,410.07 646.49,424.67 643.47,435.19 638.58,452.20 633.04,470.74 628.81,483.96 621.41,505.05 612.39,527.50 601.35,551.01 592.70,567.05 577.50,591.19 559.31,614.58 537.65,635.55 521.05,646.70 493.22,655.34 464.53,650.90 446.66,641.93 422.66,623.42 401.88,601.85 384.00,579.09 373.54,563.78 359.80,541.14 348.10,519.34 338.09,498.72 332.15,485.74 324.06,467.48 316.67,450.68 311.99,440.28 305.17,425.81 298.50,412.65 291.88,400.75 287.48,393.51 280.91,383.68 274.37,375.10 267.90,367.79 263.64,363.65 257.36,358.55 251.25,354.81 247.28,353.09 241.54,351.68 236.07,351.69 230.94,353.14 227.73,354.91 223.26,358.77 219.27,364.07 215.83,370.81 213.87,376.09 211.52,385.20 209.96,395.69 209.31,407.51 209.45,416.11 210.62,430.03 213.07,445.06 215.50,455.64 220.44,472.23 227.05,489.52 235.45,507.28 242.09,519.28 253.65,537.30 267.19,555.11 282.71,572.41 294.16,583.50 312.95,599.24 333.63,613.60 348.41,622.26 371.96,633.62 397.00,642.80 423.30,649.57 441.38,652.64 469.10,655.00 497.21,654.60 525.32,651.39 543.85,647.70 571.03,639.87 597.07,629.42 613.59,621.09 636.81,606.75 657.88,590.51 676.56,572.80 687.62,560.40 702.11,541.26 714.16,521.89 723.90,502.68 729.21,490.13 735.59,471.90 740.25,454.59 742.53,443.64 744.86,428.20 746.06,414.02 746.32,401.15 746.05,393.32 745.08,382.71 743.53,373.47 741.50,365.62 739.91,361.14 737.23,355.58 734.22,351.39 732.05,349.36 728.57,347.46 724.84,346.94 720.88,347.79 718.11,349.12 713.79,352.25 709.29,356.75 704.61,362.61 701.41,367.26 696.48,375.36 691.41,384.78 687.96,391.80 682.66,403.43 677.18,416.41 671.47,430.76 667.48,441.10 661.11,457.81 654.09,475.99 646.13,495.62 640.14,509.49 629.87,531.34 617.69,554.20 608.31,569.79 592.03,593.22 572.70,615.81 549.79,635.90 532.34,646.44 503.28,654.71 473.13,651.53 444.83,639.33 427.56,628.25 404.06,609.28 383.26,588.97 370.75,575.21 353.80,554.77 338.71,535.02 325.12,516.28 316.72,504.45 304.88,487.79 293.71,472.46 283.05,458.48 276.17,449.90 266.14,438.16 256.47,427.78 250.25,421.63 241.31,413.56 232.95,406.94 225.33,401.79 220.74,399.19 214.75,396.54 210.04,395.36 206.81,395.61 205.54,396.52 204.96,398.90 205.81,402.41 207.06,405.33 209.75,410.55 213.22,416.78 217.28,424.00 220.25,429.37 225.07,438.26 230.28,448.13 235.85,458.95 239.77,466.68 245.94,479.02 252.47,492.20 259.39,506.16 264.22,515.85 271.83,530.89 279.94,546.38 285.68,556.83 294.92,572.41 305.21,587.36 317.04,600.86 326.09,608.59 341.84,617.78 360.32,624.17 381.20,628.40 396.21,630.39 420.01,632.55 445.09,633.96 462.41,634.52 489.19,634.71 516.79,633.89 544.99,631.64 563.97,629.09 592.30,623.14 619.71,613.88 644.89,600.48 659.65,589.05 677.83,568.69 691.10,545.89 697.49,530.13 704.06,506.57 707.70,483.77 709.06,462.17 708.96,448.58 707.60,429.51 705.07,412.07 701.64,396.29 698.96,386.68 694.47,373.63 689.53,362.18 686.05,355.41 680.61,346.51 674.95,339.10 669.14,333.14 665.20,329.94 659.22,326.29 653.18,323.98 647.10,322.98 643.04,323.02 636.93,324.09 630.85,326.35 626.80,328.49 620.76,332.58 614.78,337.66 608.88,343.64 605.00,348.07 599.29,355.30 593.73,363.12 588.39,371.43 584.98,377.21 580.12,386.23 575.62,395.69 572.82,402.32 568.87,412.90 565.08,424.49 561.17,437.40 558.29,446.87 553.17,462.47 546.64,479.73 538.26,498.46 531.50,511.59 519.49,531.95 505.27,552.71 494.61,566.56 476.98,586.98 457.51,606.42 436.31,623.83 421.33,633.27 398.43,640.85 378.48,634.68 365.72,615.42 360.87,599.08 357.42,572.82 357.34,546.24 358.76,528.84 362.78,503.62 368.84,479.81 376.80,457.72 383.11,444.12 393.99,425.64 406.46,409.79 420.33,396.91 430.23,390.13 445.81,382.89 461.93,379.37 472.74,379.16 488.72,382.09 503.98,388.85 518.07,399.26 526.64,408.09 538.04,423.86 547.58,442.30 555.20,462.97 559.22,477.81 563.68,501.37 566.28,526.22 566.94,543.34 566.21,569.56 563.06,595.86 556.75,620.99 550.15,635.70 535.47,649.80 516.56,647.60 498.12,632.61 487.00,619.24 472.10,596.96 459.18,573.50 448.17,549.70 441.93,533.89 434.32,510.55 428.99,487.99 426.77,473.59 425.51,453.30 426.65,434.97 429.96,419.01 433.18,409.82 439.19,398.30 446.20,389.50 453.81,383.31 459.05,380.57 467.01,378.43 474.89,378.60 480.00,380.00 487.28,384.05 493.85,390.51 499.32,399.44 502.16,406.75 504.88,419.66 505.43,434.68 503.59,451.42 501.03,463.35 495.25,482.09 487.40,501.55 481.16,514.80 470.51,534.96 458.53,555.30 445.38,575.61 436.01,588.95 421.06,608.14 405.11,624.96 388.81,635.90 379.15,636.57 370.29,625.03 368.58,604.64 370.11,589.34 374.93,565.89 381.79,542.83 390.01,520.67 396.04,506.51 405.66,486.30 415.78,467.36 426.21,449.70 433.27,438.64 443.95,423.10 454.66,408.80 461.82,399.95 472.57,387.71 483.37,376.72 494.25,367.04 501.56,361.34 512.64,353.96 523.86,348.03 535.21,343.61 542.84,341.53 554.37,339.72 565.98,339.53 573.74,340.32 585.39,342.92 596.99,347.25 608.49,353.37 616.05,358.47 627.18,367.68 637.94,378.82 648.18,391.92 654.63,401.76 663.59,418.18 671.48,436.58 675.99,449.91 681.37,471.44 684.67,494.62 685.27,519.10 683.70,535.85 677.41,560.70 664.79,583.17 644.84,599.96 628.29,607.09 600.97,612.59 572.63,613.77 553.77,612.97 525.98,610.19 499.07,606.17 473.21,601.53 456.56,598.33 432.42,593.67 409.19,589.45 386.76,585.89 372.25,583.93 351.18,581.62 331.21,579.95 318.75,579.05 301.99,577.61 288.71,575.12 280.27,570.01 277.45,564.61 276.33,553.97 277.38,541.59 279.51,528.71 281.23,520.24 284.07,508.06 287.07,496.74 289.11,489.77 292.22,480.24 295.34,471.88 298.47,464.72 300.56,460.62 303.70,455.48 306.83,451.55 309.98,448.82 312.08,447.65 315.25,446.87 318.45,447.24 321.67,448.73 323.84,450.34 327.11,453.65 330.42,458.05 332.63,461.57 335.98,467.75 339.34,475.01 342.71,483.37 344.96,489.57 348.33,499.84 351.70,511.30 355.07,523.97 357.32,533.10 360.69,547.79 364.04,563.56 366.26,574.58 369.55,591.58 372.79,608.51 376.14,624.00 378.71,632.22 384.30,638.51 393.73,636.12 406.97,628.09 417.23,621.40 433.88,610.87 451.42,600.58 463.39,594.10 481.58,585.15 499.99,577.16 518.63,570.09 531.22,565.83 550.37,559.95 569.87,554.51 589.67,549.28 603.01,545.80 623.08,540.51 643.07,535.01 656.25,531.17 675.56,525.03 693.97,518.24 710.76,510.38 720.43,504.24 731.07,493.18 735.12,480.04 732.33,466.21 727.54,457.36 717.37,445.25 704.80,434.82 695.51,428.83 680.66,421.29 665.05,415.39 649.01,411.02 638.19,408.89 621.94,406.72 605.84,405.60 590.10,405.26 579.90,405.32 565.19,405.62 551.36,405.90 542.74,405.94 530.85,405.64 520.34,404.83 511.34,403.53 506.20,402.47 499.78,400.74 494.81,399.11 491.12,397.87 489.25,397.40 487.11,397.42 485.50,398.48 484.55,399.82 483.05,402.87 481.20,407.14 478.70,412.59 476.57,416.83 472.56,424.01 467.52,432.04 461.45,440.82 456.87,447.05 449.31,456.93 441.04,467.45 435.22,474.85 426.12,486.55 416.68,499.03 407.00,512.35 400.44,521.70 390.44,536.40 380.26,551.80 369.91,567.66 362.92,578.26 352.39,593.52 342.28,606.39 336.55,611.90 332.35,611.97 335.99,602.47 345.63,588.67 353.98,578.88 368.11,564.43 383.23,550.80 398.66,538.30 408.87,530.66 423.79,520.30 438.03,511.29 447.08,506.06 459.95,499.39 472.10,494.16 483.75,490.33 491.38,488.51 502.87,486.77 514.65,486.03 526.93,486.06 535.44,486.38 548.70,487.21 562.49,488.33 571.92,489.21 586.33,490.75 600.94,492.59 615.64,494.82 625.45,496.54 640.11,499.54 654.65,503.02 668.97,506.94 678.31,509.71 691.79,513.85 704.08,517.42 713.82,519.36 717.66,519.08 717.43,515.96 710.06,510.97 702.30,507.56 688.01,503.08 671.82,499.74 654.62,497.65 642.87,496.96 625.16,496.96 607.58,498.15 590.32,500.51 579.03,502.74 562.37,507.08 545.86,512.63 534.78,517.00 517.74,524.48 499.87,532.88 480.83,541.91 467.40,548.10 446.14,557.34 423.65,566.22 400.14,574.43 384.04,579.34 359.53,585.50 335.07,589.43 319.32,590.00 298.43,585.63 284.93,572.53 281.09,552.74 282.65,538.17 288.99,516.28 298.56,495.34 310.34,475.84 319.12,463.75 333.37,447.07 348.67,432.20 359.34,423.31 375.92,411.52 393.06,401.62 410.63,393.59 422.52,389.27 440.56,384.35 458.77,381.27 477.06,380.03 489.27,380.21 507.54,382.01 525.71,385.65 537.72,389.10 555.51,395.84 572.96,404.44 589.93,414.93 600.92,422.97 616.80,436.57 631.79,452.01 645.65,469.24 654.09,481.69 665.23,501.67 673.89,522.98 677.70,537.64 678.98,559.24 672.13,577.41 655.70,587.62 641.22,589.74 617.37,588.31 592.79,583.62 568.37,577.04 552.40,571.94 529.16,563.57 507.01,554.62 492.94,548.50 472.96,539.35 454.26,530.58 436.63,522.54 425.30,517.72 408.63,511.45 392.02,506.38 375.18,502.53 363.75,500.62 346.31,498.73 328.61,498.03 316.78,498.23 299.21,499.57 282.29,502.17 266.69,506.00 257.53,509.13 246.92,514.26 242.19,518.68 244.96,520.43 250.26,519.76 261.22,516.83 274.04,512.75 283.12,509.85 297.15,505.58 311.50,501.66 326.02,498.21 335.75,496.20 350.38,493.58 364.97,491.40 379.43,489.57 388.94,488.51 402.92,487.14 416.43,486.03 425.14,485.47 437.69,484.99 449.67,485.12 461.20,486.09 468.76,487.32 480.11,490.19 491.77,494.41 504.03,500.04 512.63,504.59 526.24,512.59 540.66,521.98 555.71,532.70 565.96,540.57 581.36,553.39 596.30,567.29 605.65,576.99 617.91,591.66 626.33,604.89 627.99,612.55 624.69,611.97 615.82,603.32 605.36,589.68 594.67,574.21 587.60,563.62 577.14,547.89 566.85,532.68 560.10,522.93 550.13,508.99 540.37,495.87 530.90,483.56 524.79,475.77 516.02,464.68 507.87,454.24 500.49,444.44 496.08,438.25 490.30,429.56 485.59,421.64 483.03,416.86 480.01,410.53 477.80,405.32 476.17,401.33 475.24,399.35 473.87,397.40 472.22,396.58 469.94,396.72 467.92,397.25 463.95,398.48 458.67,399.96 454.35,400.95 446.60,402.21 437.36,403.02 426.68,403.26 418.84,403.10 406.11,402.46 392.38,401.51 377.86,400.56 367.83,400.07 352.39,399.78 336.64,400.29 326.06,401.20 310.18,403.59 294.49,407.35 279.20,412.66 269.37,417.11 255.40,425.21 242.80,435.09 232.28,446.71 226.94,455.33 222.62,469.19 224.32,483.11 229.17,491.69 241.01,502.94 256.42,512.47 273.87,520.84 286.19,525.99 305.31,533.30 324.88,540.26 344.67,546.99 357.88,551.41 377.59,558.05 397.08,564.86 409.93,569.59 428.94,577.11 447.68,585.32 466.16,594.32 478.32,600.77 496.24,611.04 513.58,621.74 529.86,632.16 539.75,638.26 552.33,644.13 561.59,642.73 566.36,637.09 572.69,623.82 578.83,607.80 585.04,591.02 589.22,579.93 595.53,563.83 601.88,548.64 608.25,534.48 612.49,525.65 618.87,513.30 625.24,502.02 629.48,495.07 635.83,485.48 642.14,476.87 648.39,469.24 652.53,464.70 658.67,458.71 664.73,453.75 670.72,449.83 674.67,447.82 680.55,445.73 686.38,444.77 690.24,444.77 695.99,445.74 701.70,447.86 707.34,451.13 711.05,453.92 716.47,458.97 721.59,464.97 726.20,471.73 728.78,476.53 731.45,483.90 731.82,491.09 728.82,497.78 724.65,502.00 715.34,508.32 703.08,515.05 693.67,519.93 678.16,527.99 661.37,537.03 643.51,547.07 631.06,554.31 611.54,565.93 590.89,578.34 568.92,591.31 553.43,600.09 528.79,613.09 502.36,625.28 483.73,632.52 454.39,641.06 423.89,645.03 393.72,641.65 375.13,634.26 351.30,616.44 332.62,593.72 318.27,568.99 310.67,552.23 301.70,527.42 295.11,503.53 291.81,488.30 288.17,466.67 285.80,446.61 284.37,428.17 283.82,416.76 283.44,400.96 283.46,386.69 283.75,373.89 284.06,366.14 284.64,355.67 285.32,346.54 285.81,341.18 286.59,334.23 287.42,328.56 288.27,324.14 288.85,321.90 289.73,319.56 290.62,318.46 291.51,318.60 292.11,319.36 293.02,321.54 293.93,324.93 294.53,327.87 295.44,333.30 296.34,339.94 297.26,347.80 297.87,353.73 298.80,363.66 299.78,374.87 300.84,387.38 301.62,396.49 302.99,411.34 304.70,427.69 306.14,439.47 308.92,458.48 312.70,479.11 317.85,501.31 322.23,516.89 330.52,541.23 341.26,566.33 354.97,591.49 366.06,607.74 386.22,629.84 411.20,645.94 430.26,650.98 460.11,648.87 488.85,638.33 515.34,623.19 531.65,611.72 554.15,593.50 574.45,574.87 592.80,556.49 604.09,544.61 619.87,527.58 634.57,511.68 643.92,501.77 657.44,487.96 670.48,475.46 683.13,464.25 691.34,457.52 703.25,448.54 714.56,440.94 725.06,434.75 731.46,431.43 739.88,427.65 746.45,425.29 749.54,424.44 751.94,424.08 751.62,424.61 748.95,425.85 746.18,427.04 740.98,429.42 734.89,432.60 728.21,436.64 723.51,439.84 716.17,445.42 708.53,451.94 703.29,456.80 695.22,464.86 686.92,473.81 678.40,483.61 672.61,490.61 663.78,501.79 654.81,513.78 645.72,526.57 639.61,535.55 630.39,549.67 621.11,564.53 611.78,580.04 605.53,590.60 596.09,606.45 586.48,621.54 579.85,630.42 569.06,640.25 556.24,643.86 540.69,641.51 529.01,637.84 510.10,630.82 490.09,623.11 469.36,615.40 455.24,610.39 433.68,603.13 411.73,596.11 396.89,591.49 374.41,584.48 351.77,577.19 329.19,569.36 314.31,563.71 292.58,554.34 272.14,543.54 254.05,530.71 244.14,520.74 233.98,503.60 230.28,484.81 231.02,472.17 235.75,453.98 243.61,437.27 253.64,422.31 261.21,413.36 273.58,401.51 286.87,391.51 300.83,383.33 310.42,378.86 325.11,373.57 340.05,369.90 350.09,368.29 365.23,367.05 380.38,367.06 395.48,368.10 405.51,369.25 420.49,371.45 435.40,373.93 450.27,376.37 460.19,377.82 475.14,379.56 490.21,380.69 500.37,381.09 515.79,381.27 531.46,381.15 547.39,381.05 558.14,381.16 574.42,381.83 590.83,383.38 607.28,386.07 618.21,388.60 634.45,393.61 650.39,400.22 660.75,405.56 675.75,415.04 689.85,426.33 702.67,439.45 710.26,449.21 719.61,465.25 725.43,482.66 725.86,500.49 722.17,511.72 710.48,526.15 693.40,537.30 680.24,543.28 659.06,550.71 636.94,556.86 614.40,562.13 599.33,565.28 576.84,569.66 554.66,573.82 532.90,578.03 518.65,580.99 497.64,585.85 477.02,591.38 463.49,595.51 443.51,602.35 424.07,609.86 405.51,617.70 393.94,622.73 378.56,628.89 366.83,630.90 359.41,625.77 356.17,618.49 352.46,604.11 349.27,587.90 347.24,576.86 344.23,560.59 341.24,545.04 338.25,530.48 336.27,521.38 333.29,508.69 330.31,497.17 327.35,486.80 325.37,480.52 322.42,472.04 319.49,464.68 317.55,460.39 314.67,454.88 311.82,450.49 309.00,447.22 307.13,445.67 304.35,444.31 301.59,444.13 298.85,445.12 297.02,446.46 294.28,449.46 291.55,453.69 288.81,459.13 286.98,463.44 284.24,470.91 281.52,479.57 279.73,485.98 277.10,496.49 274.60,507.97 272.36,520.21 271.13,528.62 269.98,541.20 270.38,552.92 273.68,562.55 278.27,567.32 289.22,572.18 304.25,575.41 315.90,577.26 335.04,580.13 355.60,583.47 377.21,587.46 392.12,590.49 415.24,595.56 439.32,601.08 464.47,606.77 481.86,610.46 508.91,615.46 536.98,619.27 556.14,620.76 585.14,620.59 613.47,616.07 639.01,605.08 652.99,593.59 668.19,571.54 677.21,546.63 681.62,521.21 682.60,504.59 681.82,480.66 678.86,458.26 675.93,444.29 670.37,424.87 663.69,407.35 656.15,391.73 650.76,382.37 642.24,369.88 633.35,359.19 624.19,350.24 617.99,345.21 608.58,339.02 599.10,334.40 592.76,332.16 583.23,330.03 573.71,329.34 564.21,330.01 557.88,331.20 548.40,334.04 538.91,338.07 529.38,343.22 522.98,347.22 513.25,353.98 503.28,361.51 496.43,366.90 485.76,375.41 474.49,384.35 462.50,393.64 454.08,400.03 440.78,409.97 426.75,420.46 412.11,431.68 402.11,439.66 386.92,452.52 371.70,466.59 361.69,476.70 347.11,492.99 333.37,510.65 321.01,529.58 313.89,542.77 305.81,562.94 302.84,582.02 308.41,595.78 317.54,599.25 335.96,596.48 356.30,588.19 370.02,581.12 390.38,569.28 410.18,556.57 429.18,543.35 441.28,534.34 458.36,520.65 473.91,506.90 487.69,493.34 495.83,484.57 506.52,472.06 515.63,460.65 521.03,453.76 528.56,444.55 535.90,436.61 543.56,429.71 549.03,425.54 557.94,419.70 567.79,414.16 578.55,408.80 586.18,405.32 598.22,400.33 610.85,395.74 619.51,393.00 632.78,389.54 646.26,387.02 659.80,385.64 668.79,385.43 682.12,386.29 695.10,388.67 707.52,392.67 715.37,396.28 726.23,403.15 735.59,411.80 742.80,422.18 745.99,429.96 747.62,442.59 744.89,455.77 740.70,464.51 731.52,477.28 719.80,489.64 706.36,501.72 696.71,509.68 681.50,521.56 665.63,533.44 649.31,545.37 638.26,553.39 621.52,565.56 604.69,577.96 593.46,586.38 576.66,599.24 559.96,612.29 543.45,625.27 532.58,633.61 516.61,644.85 501.09,652.95 485.80,655.54 475.45,653.63 459.33,646.38 442.50,636.03 430.97,628.30 413.36,616.23 395.48,604.07 377.44,592.06 365.35,584.17 347.20,572.50 329.09,560.96 311.17,549.44 299.40,541.74 282.17,530.07 265.69,518.18 255.29,510.06 240.94,497.48 228.78,484.23 219.91,470.19 216.40,460.48 215.16,445.89 218.35,432.03 224.93,419.55 230.71,412.17 240.89,402.58 252.40,394.79 260.61,390.58 273.52,385.69 286.93,382.43 300.65,380.69 309.90,380.32 323.82,380.84 337.68,382.48 351.35,385.05 360.30,387.15 373.39,390.71 385.94,394.51 393.94,397.04 405.26,400.69 415.62,404.03 424.90,407.03 430.43,408.89 437.73,411.61 443.92,414.53 449.20,418.01 452.37,420.80 456.93,425.91 461.71,432.29 465.28,437.27 471.54,445.76 479.23,455.30 488.55,465.61 495.67,472.77 507.65,483.77 520.97,494.95 535.36,506.23 545.43,513.82 561.07,525.30 577.19,536.91 588.13,544.70 604.72,556.33 621.39,567.55 637.79,577.55 648.15,582.72 661.08,585.87 666.79,580.41 663.23,567.97 657.16,558.18 644.82,543.31 630.21,529.12 619.77,520.26 603.59,507.97 587.28,496.91 571.30,487.01 561.02,481.03 546.41,472.91 533.02,465.78 521.03,459.61 513.85,456.05 504.25,451.60 495.88,448.31 490.84,446.80 483.81,445.60 477.05,445.66 470.19,446.90 465.39,448.31 457.66,451.16 449.18,454.73 439.89,458.85 433.27,461.85 422.76,466.66 411.68,471.86 400.17,477.49" fill="none" stroke="#dc2626" stroke-width="2.2" stroke-linecap="round" stroke-linejoin="round" opacity="0.9"/>
<polyline points="480.00,380.00 233.12,327.00 333.76,558.58" fill="none" stroke="#2563eb" stroke-width="5" stroke-linecap="round" stroke-linejoin="round"/>
<circle cx="480.00" cy="380.00" r="7" fill="#111827"/>
<circle cx="233.12" cy="327.00" r="12" fill="#f97316"/>
<circle cx="333.76" cy="558.58" r="12" fill="#dc2626"/>
</svg>