<?xml version="1.0" encoding="UTF-8"?>
<svg xmlns="http://www.w3.org/2000/svg" width="1280" height="760" viewBox="0 0 1280 760">
<rect width="100%" height="100%" fill="#e2e8f0"/>
<style>
text{font-family:'Segoe UI','Yu Gothic UI',sans-serif}
.mono{font-family:Consolas,'Courier New',monospace}
</style>
<text x="28" y="38" font-size="24" font-weight="700" fill="#111827">Poincare Sections</text>
<text x="28" y="62" font-size="12" fill="#475569">Closed bands suggest regular motion. Spread-out clouds suggest stronger chaos.</text>
<rect x="40" y="110" width="580.0" height="610" fill="#ffffff" stroke="#cbd5e1"/>
<text x="58" y="138" font-size="18" font-weight="700" fill="#0f172a">Regular-like initial condition</text>
<text x="58" y="162" font-size="11" fill="#475569">theta1=25 deg, theta2=5 deg</text>
<rect x="94" y="178" width="502.0" height="494" fill="#f8fafc" stroke="#cbd5e1"/>
<line x1="94" y1="425.00" x2="596.0" y2="425.00" stroke="#cbd5e1"/>
<line x1="345.00" y1="178" x2="345.00" y2="672" stroke="#cbd5e1"/>
<circle cx="319.63" cy="424.69" r="1.5" fill="#2563eb"/>
<circle cx="372.44" cy="401.48" r="1.5" fill="#2563eb"/>
<circle cx="367.54" cy="428.56" r="1.5" fill="#2563eb"/>
<circle cx="354.16" cy="438.40" r="1.5" fill="#2563eb"/>
<circle cx="339.13" cy="473.16" r="1.5" fill="#2563eb"/>
<circle cx="338.83" cy="439.38" r="1.5" fill="#2563eb"/>
<circle cx="324.81" cy="431.09" r="1.5" fill="#2563eb"/>
<circle cx="315.91" cy="413.41" r="1.5" fill="#2563eb"/>
<circle cx="372.14" cy="421.32" r="1.5" fill="#2563eb"/>
<circle cx="360.83" cy="434.74" r="1.5" fill="#2563eb"/>
<circle cx="346.01" cy="440.17" r="1.5" fill="#2563eb"/>
<circle cx="330.98" cy="435.93" r="1.5" fill="#2563eb"/>
<circle cx="318.99" cy="423.60" r="1.5" fill="#2563eb"/>
<circle cx="373.87" cy="407.80" r="1.5" fill="#2563eb"/>
<circle cx="366.76" cy="429.45" r="1.5" fill="#2563eb"/>
<circle cx="353.14" cy="438.77" r="1.5" fill="#2563eb"/>
<circle cx="343.16" cy="473.99" r="1.5" fill="#2563eb"/>
<circle cx="337.80" cy="439.08" r="1.5" fill="#2563eb"/>
<circle cx="323.98" cy="430.25" r="1.5" fill="#2563eb"/>
<circle cx="315.87" cy="410.89" r="1.5" fill="#2563eb"/>
<circle cx="371.58" cy="422.55" r="1.5" fill="#2563eb"/>
<circle cx="359.89" cy="435.37" r="1.5" fill="#2563eb"/>
<circle cx="344.96" cy="440.19" r="1.5" fill="#2563eb"/>
<circle cx="330.03" cy="435.33" r="1.5" fill="#2563eb"/>
<circle cx="318.38" cy="422.44" r="1.5" fill="#2563eb"/>
<circle cx="374.14" cy="411.14" r="1.5" fill="#2563eb"/>
<circle cx="365.95" cy="430.32" r="1.5" fill="#2563eb"/>
<circle cx="352.11" cy="439.11" r="1.5" fill="#2563eb"/>
<circle cx="347.17" cy="473.94" r="1.5" fill="#2563eb"/>
<circle cx="336.77" cy="438.75" r="1.5" fill="#2563eb"/>
<circle cx="323.17" cy="429.38" r="1.5" fill="#2563eb"/>
<circle cx="316.17" cy="407.45" r="1.5" fill="#2563eb"/>
<circle cx="370.96" cy="423.69" r="1.5" fill="#2563eb"/>
<circle cx="358.94" cy="435.98" r="1.5" fill="#2563eb"/>
<circle cx="343.90" cy="440.17" r="1.5" fill="#2563eb"/>
<circle cx="329.09" cy="434.67" r="1.5" fill="#2563eb"/>
<circle cx="317.80" cy="421.23" r="1.5" fill="#2563eb"/>
<circle cx="374.07" cy="413.58" r="1.5" fill="#2563eb"/>
<circle cx="365.12" cy="431.15" r="1.5" fill="#2563eb"/>
<circle cx="351.08" cy="439.40" r="1.5" fill="#2563eb"/>
<circle cx="351.20" cy="473.04" r="1.5" fill="#2563eb"/>
<circle cx="335.76" cy="438.35" r="1.5" fill="#2563eb"/>
<circle cx="322.39" cy="428.48" r="1.5" fill="#2563eb"/>
<circle cx="318.00" cy="400.20" r="1.5" fill="#2563eb"/>
<circle cx="370.31" cy="424.78" r="1.5" fill="#2563eb"/>
<circle cx="357.97" cy="436.56" r="1.5" fill="#2563eb"/>
<circle cx="321.98" cy="458.21" r="1.5" fill="#2563eb"/>
<circle cx="342.85" cy="440.09" r="1.5" fill="#2563eb"/>
<circle cx="328.17" cy="434.00" r="1.5" fill="#2563eb"/>
<circle cx="317.29" cy="419.90" r="1.5" fill="#2563eb"/>
<circle cx="373.84" cy="415.59" r="1.5" fill="#2563eb"/>
<circle cx="364.27" cy="431.96" r="1.5" fill="#2563eb"/>
<circle cx="350.04" cy="439.64" r="1.5" fill="#2563eb"/>
<circle cx="355.28" cy="471.23" r="1.5" fill="#2563eb"/>
<circle cx="334.74" cy="437.94" r="1.5" fill="#2563eb"/>
<circle cx="321.63" cy="427.55" r="1.5" fill="#2563eb"/>
<circle cx="369.63" cy="425.82" r="1.5" fill="#2563eb"/>
<circle cx="356.99" cy="437.09" r="1.5" fill="#2563eb"/>
<circle cx="327.24" cy="465.23" r="1.5" fill="#2563eb"/>
<circle cx="341.79" cy="439.98" r="1.5" fill="#2563eb"/>
<circle cx="327.27" cy="433.28" r="1.5" fill="#2563eb"/>
<circle cx="316.82" cy="418.48" r="1.5" fill="#2563eb"/>
<circle cx="373.49" cy="417.31" r="1.5" fill="#2563eb"/>
<circle cx="363.39" cy="432.72" r="1.5" fill="#2563eb"/>
<circle cx="348.99" cy="439.86" r="1.5" fill="#2563eb"/>
<circle cx="359.46" cy="468.34" r="1.5" fill="#2563eb"/>
<circle cx="333.75" cy="437.46" r="1.5" fill="#2563eb"/>
<circle cx="320.90" cy="426.58" r="1.5" fill="#2563eb"/>
<circle cx="368.92" cy="426.82" r="1.5" fill="#2563eb"/>
<circle cx="356.00" cy="437.59" r="1.5" fill="#2563eb"/>
<circle cx="331.61" cy="469.19" r="1.5" fill="#2563eb"/>
<circle cx="340.75" cy="439.80" r="1.5" fill="#2563eb"/>
<circle cx="326.38" cy="432.54" r="1.5" fill="#2563eb"/>
<circle cx="316.41" cy="416.91" r="1.5" fill="#2563eb"/>
<circle cx="373.07" cy="418.85" r="1.5" fill="#2563eb"/>
<circle cx="362.51" cy="433.47" r="1.5" fill="#2563eb"/>
<circle cx="347.94" cy="440.00" r="1.5" fill="#2563eb"/>
<circle cx="363.93" cy="463.91" r="1.5" fill="#2563eb"/>
<circle cx="332.76" cy="436.96" r="1.5" fill="#2563eb"/>
<circle cx="320.20" cy="425.57" r="1.5" fill="#2563eb"/>
<circle cx="368.18" cy="427.78" r="1.5" fill="#2563eb"/>
<circle cx="355.00" cy="438.04" r="1.5" fill="#2563eb"/>
<circle cx="335.75" cy="471.79" r="1.5" fill="#2563eb"/>
<circle cx="339.70" cy="439.59" r="1.5" fill="#2563eb"/>
<circle cx="325.52" cy="431.75" r="1.5" fill="#2563eb"/>
<circle cx="316.09" cy="415.13" r="1.5" fill="#2563eb"/>
<circle cx="372.59" cy="420.25" r="1.5" fill="#2563eb"/>
<circle cx="361.60" cy="434.17" r="1.5" fill="#2563eb"/>
<circle cx="346.89" cy="440.12" r="1.5" fill="#2563eb"/>
<circle cx="331.78" cy="436.41" r="1.5" fill="#2563eb"/>
<circle cx="319.52" cy="424.51" r="1.5" fill="#2563eb"/>
<circle cx="372.92" cy="403.14" r="1.5" fill="#2563eb"/>
<circle cx="367.41" cy="428.71" r="1.5" fill="#2563eb"/>
<circle cx="353.99" cy="438.46" r="1.5" fill="#2563eb"/>
<circle cx="339.81" cy="473.36" r="1.5" fill="#2563eb"/>
<circle cx="338.66" cy="439.33" r="1.5" fill="#2563eb"/>
<circle cx="324.67" cy="430.95" r="1.5" fill="#2563eb"/>
<circle cx="315.89" cy="413.03" r="1.5" fill="#2563eb"/>
<circle cx="372.05" cy="421.53" r="1.5" fill="#2563eb"/>
<circle cx="360.67" cy="434.85" r="1.5" fill="#2563eb"/>
<circle cx="345.83" cy="440.17" r="1.5" fill="#2563eb"/>
<circle cx="330.82" cy="435.83" r="1.5" fill="#2563eb"/>
<circle cx="318.88" cy="423.41" r="1.5" fill="#2563eb"/>
<circle cx="373.95" cy="408.45" r="1.5" fill="#2563eb"/>
<circle cx="366.62" cy="429.60" r="1.5" fill="#2563eb"/>
<circle cx="352.97" cy="438.83" r="1.5" fill="#2563eb"/>
<circle cx="343.83" cy="474.03" r="1.5" fill="#2563eb"/>
<circle cx="337.63" cy="439.02" r="1.5" fill="#2563eb"/>
<circle cx="323.84" cy="430.10" r="1.5" fill="#2563eb"/>
<circle cx="315.89" cy="410.40" r="1.5" fill="#2563eb"/>
<circle cx="371.47" cy="422.74" r="1.5" fill="#2563eb"/>
<circle cx="359.73" cy="435.48" r="1.5" fill="#2563eb"/>
<circle cx="344.78" cy="440.19" r="1.5" fill="#2563eb"/>
<circle cx="329.87" cy="435.22" r="1.5" fill="#2563eb"/>
<circle cx="318.28" cy="422.24" r="1.5" fill="#2563eb"/>
<circle cx="374.14" cy="411.59" r="1.5" fill="#2563eb"/>
<circle cx="365.81" cy="430.46" r="1.5" fill="#2563eb"/>
<circle cx="351.94" cy="439.16" r="1.5" fill="#2563eb"/>
<circle cx="347.85" cy="473.85" r="1.5" fill="#2563eb"/>
<circle cx="336.60" cy="438.68" r="1.5" fill="#2563eb"/>
<circle cx="323.04" cy="429.23" r="1.5" fill="#2563eb"/>
<circle cx="316.30" cy="406.69" r="1.5" fill="#2563eb"/>
<circle cx="370.85" cy="423.88" r="1.5" fill="#2563eb"/>
<circle cx="358.78" cy="436.08" r="1.5" fill="#2563eb"/>
<circle cx="343.72" cy="440.16" r="1.5" fill="#2563eb"/>
<circle cx="328.94" cy="434.56" r="1.5" fill="#2563eb"/>
<circle cx="317.71" cy="421.01" r="1.5" fill="#2563eb"/>
<circle cx="374.04" cy="413.95" r="1.5" fill="#2563eb"/>
<circle cx="364.98" cy="431.29" r="1.5" fill="#2563eb"/>
<circle cx="350.90" cy="439.45" r="1.5" fill="#2563eb"/>
<circle cx="351.89" cy="472.81" r="1.5" fill="#2563eb"/>
<circle cx="335.58" cy="438.28" r="1.5" fill="#2563eb"/>
<circle cx="322.26" cy="428.33" r="1.5" fill="#2563eb"/>
<circle cx="370.20" cy="424.96" r="1.5" fill="#2563eb"/>
<circle cx="357.81" cy="436.65" r="1.5" fill="#2563eb"/>
<circle cx="323.05" cy="459.90" r="1.5" fill="#2563eb"/>
<circle cx="342.67" cy="440.07" r="1.5" fill="#2563eb"/>
<circle cx="328.02" cy="433.88" r="1.5" fill="#2563eb"/>
<circle cx="317.20" cy="419.67" r="1.5" fill="#2563eb"/>
<circle cx="373.78" cy="415.90" r="1.5" fill="#2563eb"/>
<circle cx="364.12" cy="432.09" r="1.5" fill="#2563eb"/>
<circle cx="349.86" cy="439.68" r="1.5" fill="#2563eb"/>
<circle cx="355.97" cy="470.84" r="1.5" fill="#2563eb"/>
<circle cx="334.57" cy="437.86" r="1.5" fill="#2563eb"/>
<circle cx="321.51" cy="427.38" r="1.5" fill="#2563eb"/>
<circle cx="369.51" cy="426.00" r="1.5" fill="#2563eb"/>
<circle cx="356.83" cy="437.17" r="1.5" fill="#2563eb"/>
<circle cx="328.02" cy="466.04" r="1.5" fill="#2563eb"/>
<circle cx="341.62" cy="439.96" r="1.5" fill="#2563eb"/>
<circle cx="327.12" cy="433.15" r="1.5" fill="#2563eb"/>
<circle cx="316.74" cy="418.22" r="1.5" fill="#2563eb"/>
<circle cx="373.43" cy="417.59" r="1.5" fill="#2563eb"/>
<circle cx="363.24" cy="432.85" r="1.5" fill="#2563eb"/>
<circle cx="348.81" cy="439.89" r="1.5" fill="#2563eb"/>
<circle cx="360.19" cy="467.72" r="1.5" fill="#2563eb"/>
<circle cx="333.58" cy="437.38" r="1.5" fill="#2563eb"/>
<circle cx="320.78" cy="426.41" r="1.5" fill="#2563eb"/>
<circle cx="368.80" cy="426.99" r="1.5" fill="#2563eb"/>
<circle cx="355.84" cy="437.68" r="1.5" fill="#2563eb"/>
<circle cx="332.32" cy="469.70" r="1.5" fill="#2563eb"/>
<circle cx="340.57" cy="439.77" r="1.5" fill="#2563eb"/>
<circle cx="326.23" cy="432.41" r="1.5" fill="#2563eb"/>
<circle cx="316.35" cy="416.62" r="1.5" fill="#2563eb"/>
<circle cx="373.00" cy="419.10" r="1.5" fill="#2563eb"/>
<circle cx="362.35" cy="433.59" r="1.5" fill="#2563eb"/>
<circle cx="347.76" cy="440.02" r="1.5" fill="#2563eb"/>
<circle cx="364.75" cy="462.92" r="1.5" fill="#2563eb"/>
<circle cx="332.59" cy="436.87" r="1.5" fill="#2563eb"/>
<circle cx="320.08" cy="425.39" r="1.5" fill="#2563eb"/>
<circle cx="368.05" cy="427.94" r="1.5" fill="#2563eb"/>
<circle cx="354.83" cy="438.11" r="1.5" fill="#2563eb"/>
<circle cx="336.45" cy="472.11" r="1.5" fill="#2563eb"/>
<circle cx="339.52" cy="439.55" r="1.5" fill="#2563eb"/>
<circle cx="325.37" cy="431.62" r="1.5" fill="#2563eb"/>
<circle cx="316.05" cy="414.79" r="1.5" fill="#2563eb"/>
<circle cx="372.50" cy="420.47" r="1.5" fill="#2563eb"/>
<circle cx="361.44" cy="434.28" r="1.5" fill="#2563eb"/>
<circle cx="346.71" cy="440.13" r="1.5" fill="#2563eb"/>
<circle cx="331.62" cy="436.32" r="1.5" fill="#2563eb"/>
<circle cx="319.41" cy="424.33" r="1.5" fill="#2563eb"/>
<circle cx="373.24" cy="404.41" r="1.5" fill="#2563eb"/>
<circle cx="367.28" cy="428.87" r="1.5" fill="#2563eb"/>
<circle cx="353.82" cy="438.53" r="1.5" fill="#2563eb"/>
<circle cx="340.50" cy="473.53" r="1.5" fill="#2563eb"/>
<circle cx="338.48" cy="439.28" r="1.5" fill="#2563eb"/>
<circle cx="324.53" cy="430.80" r="1.5" fill="#2563eb"/>
<circle cx="315.88" cy="412.62" r="1.5" fill="#2563eb"/>
<circle cx="371.95" cy="421.74" r="1.5" fill="#2563eb"/>
<circle cx="360.51" cy="434.96" r="1.5" fill="#2563eb"/>
<circle cx="345.65" cy="440.18" r="1.5" fill="#2563eb"/>
<circle cx="330.66" cy="435.73" r="1.5" fill="#2563eb"/>
<circle cx="318.78" cy="423.21" r="1.5" fill="#2563eb"/>
<circle cx="374.02" cy="409.09" r="1.5" fill="#2563eb"/>
<circle cx="366.49" cy="429.75" r="1.5" fill="#2563eb"/>
<circle cx="352.79" cy="438.89" r="1.5" fill="#2563eb"/>
<circle cx="344.52" cy="474.07" r="1.5" fill="#2563eb"/>
<circle cx="337.45" cy="438.97" r="1.5" fill="#2563eb"/>
<circle cx="323.71" cy="429.96" r="1.5" fill="#2563eb"/>
<circle cx="315.92" cy="409.87" r="1.5" fill="#2563eb"/>
<circle cx="371.37" cy="422.94" r="1.5" fill="#2563eb"/>
<circle cx="359.57" cy="435.58" r="1.5" fill="#2563eb"/>
<circle cx="344.60" cy="440.18" r="1.5" fill="#2563eb"/>
<circle cx="329.71" cy="435.11" r="1.5" fill="#2563eb"/>
<circle cx="318.18" cy="422.03" r="1.5" fill="#2563eb"/>
<circle cx="374.14" cy="412.03" r="1.5" fill="#2563eb"/>
<circle cx="365.67" cy="430.61" r="1.5" fill="#2563eb"/>
<circle cx="351.76" cy="439.21" r="1.5" fill="#2563eb"/>
<circle cx="348.54" cy="473.74" r="1.5" fill="#2563eb"/>
<circle cx="336.42" cy="438.62" r="1.5" fill="#2563eb"/>
<circle cx="322.90" cy="429.08" r="1.5" fill="#2563eb"/>
<circle cx="316.44" cy="405.85" r="1.5" fill="#2563eb"/>
<circle cx="370.74" cy="424.07" r="1.5" fill="#2563eb"/>
<circle cx="358.61" cy="436.18" r="1.5" fill="#2563eb"/>
<circle cx="343.54" cy="440.15" r="1.5" fill="#2563eb"/>
<circle cx="328.78" cy="434.44" r="1.5" fill="#2563eb"/>
<circle cx="317.62" cy="420.79" r="1.5" fill="#2563eb"/>
<circle cx="374.00" cy="414.31" r="1.5" fill="#2563eb"/>
<circle cx="364.83" cy="431.43" r="1.5" fill="#2563eb"/>
<circle cx="350.72" cy="439.49" r="1.5" fill="#2563eb"/>
<circle cx="352.59" cy="472.53" r="1.5" fill="#2563eb"/>
<circle cx="335.41" cy="438.21" r="1.5" fill="#2563eb"/>
<circle cx="322.13" cy="428.17" r="1.5" fill="#2563eb"/>
<circle cx="370.08" cy="425.14" r="1.5" fill="#2563eb"/>
<circle cx="357.64" cy="436.75" r="1.5" fill="#2563eb"/>
<circle cx="324.03" cy="461.30" r="1.5" fill="#2563eb"/>
<circle cx="342.49" cy="440.05" r="1.5" fill="#2563eb"/>
<circle cx="327.86" cy="433.76" r="1.5" fill="#2563eb"/>
<circle cx="317.12" cy="419.43" r="1.5" fill="#2563eb"/>
<circle cx="373.73" cy="416.21" r="1.5" fill="#2563eb"/>
<circle cx="363.97" cy="432.23" r="1.5" fill="#2563eb"/>
<circle cx="349.68" cy="439.72" r="1.5" fill="#2563eb"/>
<circle cx="356.69" cy="470.37" r="1.5" fill="#2563eb"/>
<circle cx="334.40" cy="437.78" r="1.5" fill="#2563eb"/>
<circle cx="321.38" cy="427.22" r="1.5" fill="#2563eb"/>
<circle cx="369.39" cy="426.17" r="1.5" fill="#2563eb"/>
<circle cx="356.65" cy="437.26" r="1.5" fill="#2563eb"/>
<circle cx="328.79" cy="466.79" r="1.5" fill="#2563eb"/>
<circle cx="341.43" cy="439.93" r="1.5" fill="#2563eb"/>
<circle cx="326.96" cy="433.02" r="1.5" fill="#2563eb"/>
<circle cx="316.67" cy="417.95" r="1.5" fill="#2563eb"/>
<circle cx="373.36" cy="417.86" r="1.5" fill="#2563eb"/>
<circle cx="363.09" cy="432.98" r="1.5" fill="#2563eb"/>
<circle cx="348.63" cy="439.92" r="1.5" fill="#2563eb"/>
<circle cx="360.94" cy="467.06" r="1.5" fill="#2563eb"/>
<circle cx="333.41" cy="437.29" r="1.5" fill="#2563eb"/>
<circle cx="320.65" cy="426.23" r="1.5" fill="#2563eb"/>
<circle cx="368.67" cy="427.16" r="1.5" fill="#2563eb"/>
<circle cx="355.66" cy="437.76" r="1.5" fill="#2563eb"/>
<circle cx="333.05" cy="470.21" r="1.5" fill="#2563eb"/>
<circle cx="340.38" cy="439.73" r="1.5" fill="#2563eb"/>
<circle cx="326.08" cy="432.27" r="1.5" fill="#2563eb"/>
<circle cx="316.29" cy="416.32" r="1.5" fill="#2563eb"/>
<circle cx="372.91" cy="419.35" r="1.5" fill="#2563eb"/>
<circle cx="362.20" cy="433.72" r="1.5" fill="#2563eb"/>
<circle cx="347.58" cy="440.04" r="1.5" fill="#2563eb"/>
<rect x="660.0" y="110" width="580.0" height="610" fill="#ffffff" stroke="#cbd5e1"/>
<text x="678.0" y="138" font-size="18" font-weight="700" fill="#0f172a">Chaotic-like initial condition</text>
<text x="678.0" y="162" font-size="11" fill="#475569">theta1=120 deg, theta2=-10 deg</text>
<rect x="714.0" y="178" width="502.0" height="494" fill="#f8fafc" stroke="#cbd5e1"/>
<line x1="714.0" y1="425.00" x2="1216" y2="425.00" stroke="#cbd5e1"/>
<line x1="965.00" y1="178" x2="965.00" y2="672" stroke="#cbd5e1"/>
<circle cx="1027.89" cy="592.52" r="1.5" fill="#dc2626"/>
<circle cx="1052.69" cy="485.53" r="1.5" fill="#dc2626"/>
<circle cx="898.38" cy="469.69" r="1.5" fill="#dc2626"/>
<circle cx="909.43" cy="600.51" r="1.5" fill="#dc2626"/>
<circle cx="975.16" cy="646.03" r="1.5" fill="#dc2626"/>
<circle cx="1108.37" cy="414.53" r="1.5" fill="#dc2626"/>
<circle cx="899.03" cy="435.41" r="1.5" fill="#dc2626"/>
<circle cx="960.93" cy="649.55" r="1.5" fill="#dc2626"/>
<circle cx="1039.84" cy="425.82" r="1.5" fill="#dc2626"/>
</svg>